<svg width="1057" height="812" viewBox="0 0 1057 812" fill="none" xmlns="http://www.w3.org/2000/svg">
<g opacity="0.67">
<path d="M325.147 365.954L306.78 371.999L324.805 360.812C324.658 359.105 324.476 357.384 324.257 355.65L314.559 357.492L323.737 351.882C321.637 338.514 316.964 321.736 310.551 304.611L274.803 318.235L308.964 300.45C299.994 277.441 288.009 254.264 275.003 238.28L255.788 251.671L271.109 233.742C259.272 220.744 246.773 214.127 235.046 219.242C220.798 225.459 216.714 255.602 221.101 291.95L230.725 291.781L221.315 293.64C223.339 309.547 226.965 326.572 232.053 343.267L268.753 331.036L233.713 348.549C241.464 372.41 252.203 395.244 265.517 412.742L279.987 398.455L268.231 416.19C279.443 429.947 292.363 439.921 306.78 443.684C306.78 443.684 327.181 409.831 325.147 365.954" fill="#03673D"/>
<path d="M308.883 443.684C308.883 443.684 329.283 409.831 327.249 365.954L308.883 371.999L326.907 360.812C326.76 359.105 326.579 357.384 326.359 355.65L316.661 357.492L325.839 351.882C323.739 338.514 319.066 321.736 312.654 304.613L276.905 318.235L311.066 300.452C302.096 277.441 290.111 254.264 277.105 238.28L257.891 251.673L273.211 233.742C261.375 220.744 248.876 214.127 237.148 219.242C237.148 219.242 290.494 344.815 307.845 443.385C308.192 443.481 308.536 443.593 308.883 443.684Z" fill="#04AD66"/>
<path d="M297.41 471.274L283.82 474.406L296.232 467.766C294.955 464.165 293.431 460.409 291.598 456.484C287.823 448.411 282.423 439.174 276.167 430.242L263.94 439.416L272.554 425.243C253.59 399.862 228.663 379.341 216.407 399.308C211.37 407.513 211.037 420.576 214.516 435.261L242.333 434.297L215.515 439.151C218.292 449.172 222.75 459.79 228.626 470.042L238.014 465.872L229.925 472.261C236.117 482.642 243.761 492.561 252.576 500.998L271.718 480.381L255.223 503.455C266.818 513.883 280.287 521.709 295.055 524.756C295.055 524.756 308.496 506.14 297.41 471.274" fill="#10794D"/>
<path d="M293.959 524.506C294.326 524.588 294.689 524.68 295.058 524.755C295.058 524.755 308.5 506.139 297.414 471.275L283.821 474.406L296.235 467.766C294.958 464.165 293.434 460.409 291.599 456.485C287.827 448.412 282.426 439.175 276.17 430.241L263.944 439.417L272.556 425.244C254.681 401.317 231.511 381.727 218.645 396.28C228.949 410.001 272.368 469.438 293.959 524.506Z" fill="#04AD66"/>
<path d="M255.559 509.605C247.972 502.528 234.434 493.84 218.716 485.854C211.9 495.798 204.291 507.028 202.982 509.488C202.795 509.927 202.725 510.078 202.81 509.852C202.839 509.768 202.899 509.644 202.982 509.488C204.084 506.909 209.418 493.924 213.74 483.387C204.311 478.818 194.274 474.574 184.372 471.112L178.983 496.361L181.466 470.117C150.587 459.774 121.796 457.54 118.129 477.567C117.116 483.102 119.081 489.252 123.294 495.689C135.129 495.005 152.25 493.908 152.25 493.908L127.289 501.07C136.444 512.208 151.483 523.914 168.92 534.611L183.899 505.904L171.655 536.264C190.021 547.266 210.755 557.081 229.928 563.944C231.554 556.864 232.743 551.734 232.743 551.734L232.985 565.015C236.675 566.288 240.297 567.442 243.824 568.471L245.411 562.348L246.451 569.216C264.012 574.079 278.945 575.595 287.501 572.069C287.501 572.069 294.304 545.745 255.559 509.605" fill="#007248"/>
<path d="M361.91 320.595C380.413 275.59 405.722 266.195 416.064 267.123C433.213 264.896 434.115 294.416 432.422 309.455H406.473L432.422 314.468C431.97 338.531 425.464 364.227 422.268 374.067L390.114 367.94L422.268 378.523C414.145 408.824 401.96 436.823 396.884 447.034L364.166 431.995L395.191 450.376L391.243 457.06L382.217 455.389L390.114 459.288C376.125 487.361 350.063 498.835 338.781 501.063C329.305 489.923 326.559 468.572 326.371 459.288L343.294 455.389H326.371C324.566 439.348 330.132 411.572 333.14 399.689L346.115 405.259L333.704 396.904L335.397 391.334L363.038 399.689L337.653 384.093C340.361 368.497 353.448 337.862 359.653 324.494L377.14 326.722L361.91 320.595Z" fill="#096B42"/>
<path d="M390.387 460.233C376.105 488.021 350.132 499.807 338.931 502.227C355.733 387.754 400.188 297.958 420.315 267.37C434.176 269.859 434.491 297.094 432.916 310.401L407.188 309.364L432.916 314.03C431.236 341.404 425.915 365.875 423.465 374.689L388.811 367.43L421.89 378.318C413.909 412.328 401.763 438.458 396.687 447.271L364.659 431.718L395.637 450.382L391.437 457.64L382.511 455.567L390.387 460.233Z" fill="#0EA867"/>
<path fill-rule="evenodd" clip-rule="evenodd" d="M321.646 662.194C321.645 662.196 321.645 662.196 320.98 662.152L321.645 662.196C321.622 662.547 321.33 662.819 320.978 662.818C320.626 662.817 320.336 662.543 320.315 662.192C317.72 619.204 300.584 586.285 278.306 561.249C256.278 537.581 230.269 520.165 204.602 507.374C204.631 507.327 204.661 507.28 204.691 507.232C187.707 498.894 173.115 493.651 164.679 490.62L164.679 490.62C162.751 489.928 161.145 489.351 159.906 488.879C144.576 483.857 130.485 480.367 118.825 477.964C118.839 477.859 118.849 477.754 118.859 477.649L118.859 477.649C118.875 477.48 118.891 477.31 118.921 477.143C122.555 457.831 151.212 460.012 181.953 470.014L179.563 494.741C179.585 494.75 179.607 494.758 179.629 494.767L184.847 470.975C194.705 474.324 204.699 478.425 214.09 482.838C210.599 491.097 206.449 500.904 204.431 505.623C204.758 505.782 205.086 505.943 205.415 506.104C208.284 501.699 214.252 493.092 219.718 485.282C235.564 493.168 249.214 501.744 256.864 508.729C295.932 544.398 289.092 570.355 289.092 570.355C288.711 570.509 288.314 570.65 287.904 570.781C304.469 592.454 317.012 619.308 320.803 652.434C321.042 646.596 321.306 638.276 321.429 627.912C321.684 606.413 321.336 576.12 318.922 540.954C314.093 470.61 301 380.813 267.963 302.885C267.819 302.546 267.977 302.155 268.316 302.011C268.655 301.867 269.047 302.026 269.19 302.365C302.311 380.49 315.419 470.456 320.252 540.862C322.67 576.071 323.018 606.4 322.762 627.928C322.634 638.693 322.355 647.257 322.108 653.132C321.985 656.069 321.869 658.334 321.784 659.865C321.742 660.631 321.707 661.213 321.683 661.604C321.671 661.8 321.662 661.947 321.655 662.046L321.648 662.158L321.646 662.187L321.646 662.194Z" fill="#128E5A"/>
<path d="M246.653 435.15C246.653 435.15 320.979 537.556 320.979 662.151C332.216 444.538 389.337 325.955 389.337 325.955" stroke="#014D2D" stroke-miterlimit="10" stroke-linecap="round" stroke-linejoin="round"/>
<path d="M345.255 627.692H285.639C285.639 627.692 269.587 753.176 321.179 767.741C372.769 782.306 345.255 627.692 345.255 627.692Z" fill="#F52D29"/>
<path d="M355.735 627.692H299.84C299.84 627.692 287.193 753.176 327.842 767.741C392.489 774.931 355.735 627.692 355.735 627.692Z" fill="#F80700"/>
</g>
<g opacity="0.76">
<path d="M368.418 40.1785H349.136V115.1H368.418V40.1785Z" fill="#FF1F55"/>
<path d="M391.271 40.1785H371.99V115.1H391.271V40.1785Z" fill="#FFC702"/>
<path d="M405.521 41.5193L389.189 51.6431L429.576 115.101L445.908 104.978L405.521 41.5193Z" fill="#3D99EE"/>
<path d="M555.972 131.616H347.902C343.464 131.616 339.207 129.876 336.069 126.778C332.931 123.681 331.167 119.48 331.167 115.1H572.705C572.705 119.48 570.942 123.68 567.804 126.778C564.666 129.875 560.41 131.615 555.972 131.616V131.616Z" fill="#6F2A1A"/>
<path d="M559.93 42.9529H467.812V115.099H559.93V42.9529Z" fill="#BDD8F5"/>
<path d="M553.772 50.0396H473.976V107.998H553.772V50.0396Z" fill="#FB4C47"/>
<path d="M513.873 97.6165C524.276 97.6165 532.71 89.2934 532.71 79.0263C532.71 68.7592 524.276 60.436 513.873 60.436C503.47 60.436 495.036 68.7592 495.036 79.0263C495.036 89.2934 503.47 97.6165 513.873 97.6165Z" fill="#FFC700"/>
<path d="M536.609 107.998H473.976V80.2463C484.788 79.8422 500.759 81.14 515.847 89.7005C523.979 94.3123 531.05 100.544 536.609 107.998V107.998Z" fill="#1DB776"/>
<path d="M553.77 69.8809V107.999H503.553C506.771 101.367 510.907 95.2086 515.844 89.7012C524.416 80.1872 536.646 71.9911 553.77 69.8809Z" fill="#11915B"/>
<path d="M380.017 145.954H365.002L367.076 115.099H377.943L380.017 145.954Z" fill="#592A3C"/>
<path d="M538.875 145.954H523.86L525.934 115.099H536.801L538.875 145.954Z" fill="#592A3C"/>
<path d="M854.669 98.9117H640.542V0.000244141H854.669V98.9117ZM649.724 89.8525H845.489V9.06189H649.721L649.724 89.8525Z" fill="#925C50"/>
<path d="M845.489 9.06201H649.722V89.8526H845.489V9.06201Z" fill="white"/>
<path d="M693.254 68.8182C709.751 65.0038 719.991 48.7135 716.126 32.4327C712.261 16.152 695.755 6.04606 679.258 9.86048C662.761 13.6749 652.521 29.9652 656.386 46.246C660.251 62.5267 676.758 72.6327 693.254 68.8182Z" fill="#FFC700"/>
<path d="M649.722 64.3461L707.918 38.697C712.555 36.6531 717.668 35.8977 722.708 36.512C727.748 37.1264 732.521 39.0873 736.515 42.1831L798.017 89.8518H649.724L649.722 64.3461Z" fill="#11915B"/>
<path d="M751.332 53.6689L795.168 39.3659C799.855 37.8363 804.87 37.5623 809.7 38.5718C814.53 39.5812 819.002 41.838 822.659 45.1115L845.488 65.5485V89.8575H798.015L751.332 53.6689Z" fill="#1DB776"/>
</g>
<path opacity="0.89" d="M535.713 238.419C533.717 238.362 531.993 239.881 531.504 241.969C528.407 242.208 524.873 242.289 520.995 242.046C518.827 241.908 516.776 241.685 514.852 241.408C514.863 241.042 514.87 240.673 514.87 240.304C514.87 238.508 514.742 236.743 514.495 235.016C515.472 234.273 516.697 233.493 518.177 232.823C520.747 231.654 523.156 231.239 525.007 231.119C525.919 233.17 528.004 234.361 530.011 233.843C532.265 233.258 533.552 230.731 532.887 228.196C532.223 225.662 529.859 224.077 527.605 224.662C525.551 225.196 524.298 227.343 524.594 229.639C522.97 230.554 520.558 231.546 517.571 231.62C516.091 231.658 514.801 231.462 513.755 231.208C513.091 228.527 512.134 225.958 510.919 223.535C512.206 222.381 513.727 221.158 515.51 219.977C518.091 218.262 520.579 217.035 522.764 216.154C524.188 217.808 526.463 218.358 528.214 217.35C530.227 216.196 530.799 213.415 529.484 211.147C528.166 208.877 525.458 207.977 523.445 209.135C521.69 210.139 521.036 212.37 521.759 214.423C519.883 215.87 517.574 217.396 514.804 218.758C512.919 219.689 511.115 220.396 509.484 220.935C508.153 218.715 506.587 216.646 504.835 214.758C505.51 212.327 506.649 209.488 508.59 206.643C510.41 203.981 512.437 202.039 514.157 200.673C516.05 201.839 518.431 201.658 519.787 200.123C521.329 198.385 520.974 195.573 518.996 193.842C517.02 192.108 514.168 192.112 512.633 193.85C511.27 195.385 511.384 197.75 512.791 199.477C511.68 201.3 510 203.562 507.53 205.715C504.808 208.093 502.069 209.516 499.987 210.362C497.619 208.558 495.035 207.027 492.272 205.816C492.674 204.712 493.204 203.6 493.899 202.508C494.457 201.643 495.056 200.881 495.665 200.216C497.771 201.066 500.121 200.454 501.181 198.673C502.375 196.685 501.504 193.985 499.237 192.646C496.972 191.308 494.171 191.835 492.981 193.827C491.938 195.577 492.489 197.877 494.171 199.315C493.82 200.238 493.394 201.197 492.888 202.173C492.31 203.296 491.676 204.331 491.012 205.289C490.734 205.177 490.451 205.069 490.173 204.97C486.879 203.747 483.376 202.974 479.725 202.712C479.127 201.104 478.604 199.323 478.239 197.366C477.492 193.373 477.63 189.897 477.974 187.287C480.121 186.878 481.732 185.202 481.732 183.192C481.732 180.877 479.595 179 476.959 179C474.326 179 472.189 180.877 472.189 183.192C472.189 185.236 473.858 186.936 476.057 187.308C476.535 189.879 476.849 193.48 476.109 197.654C475.782 199.491 475.3 201.166 474.736 202.681C471.236 202.878 467.867 203.55 464.684 204.632C464.24 203.933 463.845 203.2 463.49 202.334C462.785 200.62 462.478 199.013 462.358 197.675C464.416 196.61 465.479 194.374 464.75 192.396C463.955 190.221 461.298 189.187 458.824 190.086C456.35 190.985 454.99 193.476 455.789 195.651C456.477 197.528 458.549 198.552 460.696 198.221C461.322 199.501 461.921 200.978 462.396 202.654C462.644 203.542 462.833 204.41 462.977 205.26C460.09 206.397 457.379 207.881 454.891 209.656C453.58 208.714 452.241 207.621 450.92 206.34C447.874 203.391 445.84 200.366 444.505 197.943C445.985 196.316 446.243 193.987 445.004 192.382C443.583 190.547 440.741 190.353 438.652 191.95C436.563 193.546 436.019 196.329 437.441 198.164C438.693 199.787 441.061 200.124 443.033 199.079C444.963 200.796 447.465 203.505 449.406 207.398C450.29 209.178 450.909 210.91 451.339 212.525C450.94 212.89 450.541 213.266 450.156 213.65C448.208 215.587 446.474 217.732 444.984 220.054C444.106 219.802 443.198 219.499 442.269 219.126C439.237 217.914 436.89 216.37 435.19 215.024C435.913 212.931 435.211 210.672 433.411 209.693C431.371 208.58 428.69 209.54 427.424 211.837C426.157 214.135 426.783 216.9 428.828 218.012C430.624 218.991 432.909 218.365 434.299 216.639C436.364 217.349 438.931 218.488 441.587 220.357C442.379 220.916 443.108 221.49 443.783 222.068C441.68 225.832 440.214 229.992 439.516 234.409C437.699 234.564 435.741 234.637 433.642 234.573C430.644 234.481 427.936 234.132 425.572 233.677C425.517 231.367 423.962 229.433 421.852 229.213C419.54 228.972 417.437 230.888 417.165 233.494C416.887 236.099 418.545 238.407 420.858 238.649C422.919 238.864 424.805 237.368 425.39 235.2C427.819 235.249 430.545 235.465 433.497 235.97C435.538 236.319 437.434 236.765 439.178 237.261C439.096 238.264 439.055 239.278 439.055 240.304C439.055 242.741 439.285 245.124 439.732 247.433C437.726 248.754 434.953 250.253 431.429 251.306C428.339 252.229 425.555 252.543 423.339 252.61C422.544 250.556 420.565 249.275 418.559 249.66C416.274 250.099 414.822 252.54 415.324 255.112C415.823 257.685 418.081 259.414 420.369 258.975C422.344 258.596 423.69 256.72 423.697 254.556C425.968 253.822 428.645 253.134 431.694 252.684C435.2 252.169 438.342 252.096 440.985 252.21C442.048 255.397 443.535 258.392 445.369 261.134C444.505 261.815 443.535 262.488 442.454 263.117C440.373 264.321 438.377 265.071 436.646 265.555C435.469 263.694 433.28 262.821 431.391 263.581C429.234 264.45 428.28 267.123 429.275 269.55C429.894 271.073 431.133 272.142 432.503 272.508C433.311 272.727 434.168 272.7 434.97 272.377C435.211 272.281 435.434 272.162 435.641 272.019C437.22 270.981 437.888 268.83 437.22 266.778C438.858 265.937 440.772 265.105 442.981 264.419C444.395 263.978 445.748 263.658 447.021 263.418C448.18 264.909 449.454 266.309 450.823 267.601C450.954 267.723 451.081 267.846 451.212 267.962C450.286 270.016 448.893 272.512 446.79 275.043C444.732 277.519 442.592 279.323 440.792 280.596C438.986 279.323 436.622 279.35 435.166 280.777C433.511 282.404 433.669 285.235 435.524 287.1C437.372 288.962 440.221 289.154 441.876 287.527C443.311 286.116 443.383 283.793 442.158 281.988C443.576 280.154 445.424 278.085 447.785 276.042C450.317 273.85 452.819 272.227 454.997 271.031C457.881 273.069 461.068 274.719 464.471 275.9C464.333 277.173 464.103 278.546 463.728 279.988C462.912 283.131 461.683 285.65 460.569 287.504C458.387 287.069 456.229 288.061 455.489 289.961C454.65 292.119 455.961 294.635 458.418 295.581C460.875 296.528 463.549 295.543 464.388 293.381C465.121 291.504 464.223 289.358 462.361 288.212C462.888 285.977 463.717 283.335 465.039 280.497C465.686 279.112 466.374 277.85 467.079 276.7C469.698 277.404 472.43 277.835 475.245 277.954C475.706 280.146 476.078 282.6 476.257 285.281C476.525 289.269 476.308 292.8 475.926 295.716C473.786 296.129 472.189 297.805 472.189 299.808C472.189 302.122 474.326 304 476.962 304C479.598 304 481.732 302.122 481.732 299.808C481.732 297.812 480.142 296.139 478.015 295.719C477.657 292.738 477.461 289.216 477.664 285.281C477.805 282.627 478.108 280.177 478.493 277.962C481.436 277.85 484.292 277.4 487.021 276.65C487.255 277.05 487.489 277.465 487.709 277.892C489.188 280.712 489.987 283.354 490.42 285.47C488.521 286.565 487.557 288.696 488.235 290.596C489.02 292.777 491.663 293.831 494.151 292.954C496.632 292.073 498.008 289.592 497.227 287.411C496.535 285.477 494.371 284.431 492.158 284.831C491.143 283.096 489.963 280.477 489.553 277.123C489.502 276.708 489.464 276.3 489.44 275.9C492.482 274.854 495.341 273.427 497.97 271.681C499.67 273.054 501.46 274.693 503.239 276.639C505.971 279.631 507.956 282.581 509.391 285.088C507.936 286.712 507.681 289.023 508.916 290.619C510.338 292.454 513.177 292.646 515.269 291.05C517.358 289.454 517.905 286.673 516.484 284.834C515.255 283.25 512.963 282.889 511.016 283.854C508.92 281.742 506.597 279.069 504.357 275.785C502.908 273.662 501.714 271.6 500.727 269.666C501.786 268.816 502.802 267.912 503.762 266.954C505.341 265.385 506.783 263.681 508.056 261.858C510.41 262.512 513.132 263.469 516.016 264.908C518.796 266.289 521.112 267.808 522.98 269.223C522.272 271.277 522.946 273.5 524.698 274.492C526.721 275.643 529.415 274.727 530.726 272.454C532.034 270.177 531.453 267.404 529.429 266.254C527.66 265.25 525.375 265.823 523.954 267.508C521.869 266.719 519.34 265.523 516.718 263.689C513.992 261.785 511.938 259.743 510.444 257.981C511.453 256.104 512.303 254.131 512.98 252.077C514.113 252.116 515.303 252.216 516.545 252.4C519.729 252.877 522.382 253.774 524.422 254.666C524.247 256.858 525.492 258.866 527.471 259.369C529.722 259.946 532.086 258.358 532.743 255.819C533.397 253.281 532.099 250.758 529.849 250.181C527.86 249.673 525.792 250.843 524.88 252.862C522.709 252.685 519.935 252.212 516.9 251.042C515.744 250.597 514.68 250.1 513.71 249.581C514.195 247.677 514.536 245.719 514.711 243.712C516.673 243.554 518.762 243.454 520.954 243.45C524.832 243.439 528.349 243.715 531.439 244.123C531.81 246.235 533.445 247.843 535.441 247.904C537.767 247.969 539.718 245.9 539.79 243.281C539.866 240.662 538.042 238.485 535.713 238.419" fill="#FA5752" fill-opacity="0.82"/>
<path opacity="0.93" d="M185.139 134.743C182.073 134.654 179.423 137 178.673 140.224C173.914 140.593 168.483 140.717 162.524 140.343C159.193 140.13 156.042 139.785 153.086 139.357C153.102 138.793 153.112 138.223 153.112 137.653C153.112 134.88 152.917 132.154 152.536 129.488C154.038 128.342 155.92 127.136 158.194 126.102C162.144 124.298 165.845 123.656 168.69 123.472C170.091 126.638 173.295 128.478 176.378 127.677C179.841 126.774 181.819 122.872 180.798 118.959C179.778 115.046 176.145 112.599 172.682 113.502C169.525 114.327 167.6 117.641 168.055 121.186C165.559 122.599 161.853 124.131 157.263 124.244C154.989 124.304 153.007 124 151.399 123.608C150.379 119.47 148.909 115.502 147.042 111.761C149.02 109.98 151.357 108.091 154.096 106.268C158.062 103.62 161.884 101.725 165.242 100.366C167.431 102.919 170.926 103.768 173.618 102.212C176.711 100.431 177.589 96.137 175.569 92.6339C173.544 89.1297 169.382 87.7403 166.289 89.5275C163.592 91.0775 162.588 94.5225 163.698 97.6933C160.816 99.9265 157.268 102.284 153.012 104.386C150.114 105.823 147.344 106.916 144.837 107.747C142.791 104.32 140.385 101.126 137.694 98.21C138.73 94.457 140.48 90.0737 143.462 85.6799C146.26 81.5703 149.374 78.5717 152.018 76.4627C154.926 78.2626 158.585 77.9832 160.668 75.6138C163.037 72.93 162.493 68.589 159.452 65.9164C156.417 63.2385 152.034 63.2443 149.675 65.928C147.582 68.298 147.756 71.9501 149.919 74.6164C148.211 77.4311 145.63 80.9226 141.834 84.2482C137.651 87.9188 133.442 90.116 130.243 91.4225C126.606 88.6368 122.635 86.2732 118.389 84.403C119.007 82.6988 119.822 80.9823 120.89 79.296C121.746 77.9599 122.666 76.7834 123.602 75.7569C126.838 77.0692 130.45 76.1241 132.078 73.3749C133.913 70.3049 132.575 66.1362 129.091 64.0695C125.612 62.0028 121.307 62.8164 119.478 65.8926C117.876 68.5949 118.722 72.1455 121.307 74.3665C120.768 75.7918 120.112 77.2711 119.335 78.7788C118.447 80.5132 117.474 82.1108 116.453 83.5895C116.025 83.4172 115.592 83.2508 115.163 83.0971C110.103 81.2084 104.72 80.015 99.1101 79.6103C98.1901 77.1284 97.3863 74.3776 96.8259 71.3563C95.6785 65.191 95.89 59.8251 96.4188 55.7953C99.7182 55.164 102.193 52.5748 102.193 49.4727C102.193 45.8982 98.9092 43 94.8589 43C90.8139 43 87.5303 45.8982 87.5303 49.4727C87.5303 52.6287 90.0948 55.2533 93.4736 55.8265C94.2085 59.7971 94.6897 65.3569 93.5529 71.8011C93.0505 74.638 92.3103 77.2235 91.4431 79.5633C86.0656 79.8666 80.8891 80.9041 75.998 82.5762C75.3159 81.4969 74.7079 80.3637 74.1632 79.0271C73.0793 76.3809 72.6087 73.8989 72.4236 71.8338C75.5856 70.1887 77.2194 66.7374 76.0985 63.6838C74.877 60.3255 70.7951 58.7284 66.9933 60.1162C63.1915 61.5041 61.1029 65.3511 62.3296 68.7089C63.3871 71.6072 66.5702 73.1884 69.8697 72.677C70.832 74.6533 71.7521 76.9329 72.4818 79.5216C72.8625 80.893 73.1533 82.2333 73.3754 83.5446C68.9391 85.3011 64.7724 87.5913 60.9495 90.3321C58.9349 88.8787 56.8781 87.1908 54.8476 85.2124C50.1681 80.659 47.0431 75.9889 44.9915 72.2475C47.2652 69.7354 47.6618 66.1399 45.7582 63.6622C43.5745 60.8279 39.2069 60.5283 35.9974 62.9939C32.7878 65.4589 31.9523 69.7555 34.1361 72.5893C36.0608 75.0945 39.6987 75.6154 42.7285 74.002C45.6948 76.6524 49.5389 80.8349 52.5211 86.8459C53.88 89.5951 54.8318 92.2688 55.4927 94.7624C54.8794 95.3255 54.266 95.9066 53.6738 96.4994C50.681 99.4906 48.0161 102.802 45.7265 106.387C44.3782 105.998 42.9823 105.53 41.5546 104.954C36.8962 103.083 33.2901 100.698 30.678 98.6205C31.7884 95.3884 30.7098 91.9006 27.9444 90.3892C24.8088 88.6711 20.6898 90.1535 18.7439 93.7005C16.7981 97.248 17.7604 101.517 20.9013 103.234C23.6614 104.746 27.1724 103.78 29.3085 101.115C32.4811 102.21 36.4256 103.968 40.5077 106.855C41.7238 107.717 42.8448 108.604 43.8811 109.497C40.6504 115.308 38.3979 121.732 37.3245 128.552C34.5327 128.79 31.524 128.903 28.2986 128.805C23.6931 128.663 19.5317 128.123 15.8992 127.421C15.8146 123.855 13.4246 120.869 10.1833 120.529C6.63002 120.156 3.39929 123.114 2.98157 127.138C2.55327 131.16 5.10189 134.724 8.65515 135.097C11.8224 135.429 14.72 133.12 15.6189 129.773C19.352 129.849 23.5398 130.181 28.0765 130.961C31.2121 131.501 34.1255 132.189 36.8063 132.954C36.6794 134.503 36.616 136.069 36.616 137.653C36.616 141.415 36.9702 145.095 37.6576 148.661C34.575 150.7 30.3132 153.015 24.8987 154.639C20.1504 156.065 15.8728 156.55 12.4675 156.654C11.2461 153.482 8.20572 151.504 5.12305 152.098C1.61208 152.777 -0.619286 156.545 0.152704 160.517C0.919405 164.489 4.3881 167.159 7.90435 166.481C10.9394 165.895 13.0068 162.999 13.0174 159.659C16.5072 158.525 20.621 157.462 25.3058 156.768C30.6939 155.973 35.5215 155.86 39.5823 156.036C41.2162 160.957 43.5005 165.581 46.3188 169.814C44.9916 170.866 43.5005 171.905 41.8402 172.876C38.6412 174.736 35.5744 175.893 32.9147 176.64C31.1063 173.768 27.7434 172.419 24.8405 173.592C21.5252 174.935 20.0605 179.062 21.5887 182.809C22.5404 185.161 24.4439 186.811 26.5484 187.376C27.791 187.714 29.1076 187.673 30.3396 187.173C30.7098 187.025 31.0535 186.841 31.3707 186.621C33.7977 185.019 34.8235 181.698 33.7977 178.528C36.3146 177.231 39.2545 175.946 42.6491 174.886C44.8223 174.206 46.9004 173.711 48.8568 173.341C50.6387 175.644 52.5951 177.804 54.6996 179.799C54.9005 179.988 55.0962 180.178 55.2971 180.356C53.8747 183.528 51.7332 187.382 48.5025 191.289C45.3405 195.113 42.0517 197.899 39.2863 199.864C36.5103 197.899 32.8777 197.94 30.641 200.143C28.0977 202.656 28.3409 207.026 31.1909 209.906C34.0303 212.78 38.4085 213.077 40.9518 210.565C43.1568 208.386 43.2678 204.799 41.3854 202.014C43.5639 199.182 46.4033 195.986 50.0306 192.833C53.9223 189.448 57.7664 186.942 61.1134 185.096C65.5445 188.243 70.4408 190.79 75.6702 192.614C75.4587 194.579 75.1044 196.699 74.5281 198.926C73.2749 203.778 71.3872 207.668 69.674 210.53C66.3217 209.859 63.0064 211.39 61.8696 214.324C60.5794 217.656 62.5939 221.54 66.3693 223C70.1446 224.463 74.2531 222.942 75.5433 219.604C76.6695 216.706 75.2895 213.392 72.4289 211.623C73.2379 208.172 74.5122 204.093 76.5427 199.71C77.5367 197.572 78.5942 195.625 79.6782 193.848C83.7021 194.935 87.9004 195.601 92.2257 195.785C92.9342 199.169 93.5053 202.958 93.7802 207.097C94.1927 213.255 93.8596 218.707 93.2726 223.209C89.9837 223.846 87.5303 226.435 87.5303 229.527C87.5303 233.1 90.8139 236 94.8642 236C98.9145 236 102.193 233.1 102.193 229.527C102.193 226.446 99.7499 223.862 96.4822 223.214C95.9323 218.612 95.6309 213.172 95.9429 207.097C96.1597 203 96.625 199.217 97.2172 195.797C101.738 195.625 106.127 194.929 110.32 193.772C110.679 194.389 111.039 195.03 111.377 195.689C113.651 200.043 114.878 204.123 115.544 207.389C112.625 209.081 111.145 212.37 112.186 215.304C113.392 218.671 117.453 220.299 121.276 218.945C125.088 217.585 127.203 213.754 126.003 210.387C124.94 207.401 121.614 205.785 118.214 206.403C116.654 203.724 114.841 199.68 114.212 194.501C114.132 193.861 114.074 193.231 114.037 192.614C118.711 190.998 123.105 188.795 127.145 186.099C129.757 188.219 132.507 190.749 135.24 193.754C139.439 198.374 142.49 202.929 144.695 206.8C142.458 209.307 142.067 212.875 143.965 215.34C146.149 218.172 150.511 218.47 153.726 216.005C156.935 213.54 157.776 209.247 155.592 206.408C153.705 203.962 150.183 203.404 147.19 204.894C143.97 201.634 140.401 197.507 136.959 192.435C134.733 189.157 132.898 185.975 131.38 182.987C133.009 181.675 134.569 180.279 136.044 178.801C138.471 176.378 140.686 173.747 142.643 170.933C146.26 171.942 150.442 173.42 154.873 175.641C159.146 177.773 162.704 180.119 165.575 182.304C164.486 185.475 165.522 188.908 168.214 190.44C171.323 192.216 175.463 190.802 177.478 187.293C179.487 183.777 178.593 179.495 175.484 177.72C172.766 176.17 169.255 177.055 167.072 179.656C163.867 178.438 159.981 176.592 155.952 173.759C151.764 170.819 148.607 167.666 146.313 164.946C147.862 162.048 149.168 159.002 150.209 155.831C151.949 155.89 153.779 156.045 155.687 156.329C160.578 157.066 164.655 158.45 167.791 159.828C167.521 163.212 169.435 166.312 172.476 167.09C175.934 167.98 179.566 165.528 180.576 161.609C181.581 157.689 179.587 153.794 176.129 152.903C173.073 152.119 169.895 153.925 168.494 157.042C165.158 156.769 160.896 156.039 156.232 154.233C154.455 153.545 152.822 152.778 151.33 151.977C152.076 149.037 152.599 146.014 152.869 142.915C155.883 142.671 159.093 142.517 162.461 142.511C168.42 142.493 173.824 142.92 178.572 143.55C179.143 146.811 181.655 149.292 184.722 149.388C188.296 149.488 191.294 146.293 191.405 142.249C191.521 138.205 188.719 134.844 185.139 134.743Z" fill="#FA5752" fill-opacity="0.9"/>
<path d="M1059.63 62.6161C1057.8 62.562 1056.22 63.984 1055.77 65.9388C1052.92 66.1621 1049.67 66.2376 1046.11 66.0109C1044.12 65.8815 1042.24 65.6724 1040.47 65.4133C1040.48 65.0712 1040.48 64.7257 1040.48 64.3801C1040.48 62.6987 1040.37 61.0465 1040.14 59.4302C1041.04 58.7355 1042.16 58.0047 1043.52 57.3779C1045.88 56.2839 1048.1 55.8948 1049.8 55.7833C1050.64 57.7023 1052.55 58.8178 1054.39 58.3323C1056.47 57.785 1057.65 55.4198 1057.04 53.0473C1056.43 50.6752 1054.26 49.1917 1052.19 49.739C1050.3 50.2393 1049.15 52.2483 1049.42 54.3972C1047.93 55.2543 1045.71 56.183 1042.97 56.2516C1041.61 56.2874 1040.42 56.1036 1039.46 55.866C1038.85 53.357 1037.97 50.9519 1036.86 48.6841C1038.04 47.6042 1039.44 46.4592 1041.07 45.354C1043.44 43.7485 1045.73 42.6001 1047.74 41.776C1049.05 43.3235 1051.14 43.8385 1052.74 42.895C1054.59 41.8154 1055.12 39.2123 1053.91 37.0887C1052.7 34.9644 1050.21 34.1221 1048.36 35.2055C1046.75 36.1452 1046.15 38.2336 1046.81 40.1558C1045.09 41.5096 1042.97 42.9386 1040.42 44.2132C1038.69 45.0843 1037.04 45.7466 1035.54 46.2504C1034.31 44.1732 1032.88 42.2366 1031.27 40.4691C1031.89 38.1939 1032.93 35.5367 1034.72 32.8731C1036.39 30.3818 1038.25 28.5639 1039.83 27.2855C1041.57 28.3766 1043.76 28.2072 1045 26.7708C1046.42 25.1439 1046.09 22.5123 1044.28 20.8921C1042.46 19.2687 1039.84 19.2722 1038.43 20.8991C1037.18 22.3358 1037.28 24.5498 1038.58 26.1661C1037.55 27.8725 1036.01 29.9891 1033.74 32.0052C1031.24 34.2303 1028.72 35.5623 1026.81 36.3543C1024.64 34.6656 1022.26 33.2327 1019.72 32.099C1020.09 31.0658 1020.58 30.0253 1021.22 29.003C1021.73 28.1931 1022.28 27.4799 1022.84 26.8576C1024.78 27.6531 1026.94 27.0802 1027.91 25.4135C1029.01 23.5525 1028.21 21.0253 1026.12 19.7724C1024.04 18.5196 1021.47 19.0128 1020.38 20.8777C1019.42 22.5158 1019.92 24.6683 1021.47 26.0147C1021.15 26.8787 1020.75 27.7755 1020.29 28.6895C1019.76 29.7409 1019.18 30.7094 1018.57 31.6058C1018.31 31.5014 1018.05 31.4005 1017.8 31.3073C1014.77 30.1624 1011.55 29.4389 1008.2 29.1936C1007.65 27.689 1007.17 26.0214 1006.83 24.1898C1006.15 20.4524 1006.27 17.1994 1006.59 14.7565C1008.56 14.3738 1010.04 12.8042 1010.04 10.9236C1010.04 8.75671 1008.08 6.99976 1005.66 6.99976C1003.24 6.99976 1001.27 8.75671 1001.27 10.9236C1001.27 12.8369 1002.81 14.4279 1004.83 14.7754C1005.27 17.1825 1005.55 20.5529 1004.88 24.4595C1004.57 26.1793 1004.13 27.7466 1003.61 29.1651C1000.4 29.3489 997.304 29.9779 994.379 30.9915C993.972 30.3372 993.608 29.6503 993.282 28.84C992.634 27.2358 992.353 25.7312 992.242 24.4793C994.133 23.482 995.11 21.3898 994.439 19.5387C993.709 17.5027 991.269 16.5346 988.996 17.3759C986.723 18.2172 985.474 20.5494 986.207 22.585C986.84 24.3419 988.743 25.3005 990.715 24.9905C991.291 26.1886 991.841 27.5705 992.277 29.1398C992.505 29.9712 992.679 30.7837 992.811 31.5786C990.159 32.6434 987.668 34.0318 985.382 35.6933C984.178 34.8123 982.948 33.789 981.734 32.5896C978.936 29.8293 977.068 26.9982 975.841 24.7301C977.201 23.2073 977.438 21.0275 976.3 19.5255C974.994 17.8073 972.383 17.6257 970.464 19.1204C968.545 20.6147 968.045 23.2194 969.351 24.9373C970.502 26.456 972.677 26.7718 974.488 25.7937C976.262 27.4004 978.56 29.9359 980.343 33.5799C981.155 35.2465 981.724 36.8674 982.12 38.379C981.753 38.7204 981.386 39.0727 981.032 39.432C979.243 41.2454 977.649 43.2531 976.281 45.4261C975.474 45.1903 974.64 44.9063 973.786 44.5575C971.001 43.4231 968.845 41.9775 967.283 40.7179C967.947 38.7585 967.302 36.6442 965.649 35.7279C963.774 34.6864 961.311 35.585 960.148 37.7353C958.985 39.8858 959.56 42.4736 961.438 43.5147C963.088 44.431 965.187 43.8456 966.465 42.2298C968.361 42.8941 970.72 43.9599 973.16 45.7098C973.887 46.2325 974.558 46.7702 975.177 47.3111C973.246 50.8343 971.899 54.7284 971.257 58.8626C969.588 59.0074 967.789 59.0759 965.861 59.016C963.107 58.9299 960.619 58.6029 958.447 58.1773C958.397 56.0152 956.968 54.2051 955.03 53.9991C952.905 53.773 950.974 55.5665 950.724 58.0056C950.468 60.4441 951.992 62.6046 954.116 62.8307C956.01 63.0318 957.742 61.6319 958.28 59.6031C960.512 59.6489 963.015 59.8507 965.728 60.3234C967.603 60.6504 969.345 61.068 970.947 61.5314C970.871 62.4704 970.834 63.42 970.834 64.3801C970.834 66.6607 971.045 68.8913 971.456 71.0531C969.613 72.2896 967.065 73.6927 963.828 74.6775C960.989 75.5416 958.431 75.8356 956.396 75.8987C955.665 73.9761 953.847 72.7771 952.004 73.137C949.905 73.5483 948.571 75.8327 949.033 78.2404C949.491 80.6485 951.565 82.2671 953.667 81.8559C955.482 81.501 956.718 79.745 956.724 77.7203C958.811 77.033 961.27 76.3887 964.071 75.9682C967.293 75.4862 970.179 75.4173 972.607 75.5243C973.584 78.5075 974.95 81.3108 976.635 83.8767C975.841 84.5143 974.95 85.1443 973.957 85.7329C972.044 86.8603 970.211 87.5616 968.621 88.0148C967.539 86.2735 965.529 85.4556 963.793 86.1672C961.811 86.981 960.935 89.4829 961.849 91.7545C962.418 93.18 963.556 94.1808 964.814 94.5229C965.557 94.7281 966.344 94.7028 967.081 94.4002C967.302 94.3105 967.508 94.1988 967.697 94.0655C969.149 93.0942 969.762 91.0807 969.148 89.1594C970.653 88.3729 972.411 87.594 974.441 86.9515C975.74 86.5394 976.982 86.239 978.152 86.0148C979.217 87.4108 980.387 88.7203 981.645 89.9297C981.766 90.0443 981.883 90.1596 982.003 90.2675C981.152 92.1901 979.872 94.5264 977.94 96.8954C976.05 99.2134 974.083 100.902 972.43 102.094C970.77 100.902 968.598 100.927 967.261 102.263C965.741 103.786 965.886 106.435 967.59 108.181C969.288 109.924 971.905 110.104 973.426 108.581C974.744 107.26 974.811 105.085 973.685 103.397C974.988 101.68 976.685 99.7428 978.854 97.8312C981.181 95.7792 983.479 94.2599 985.48 93.1406C988.129 95.0484 991.057 96.5927 994.183 97.6982C994.057 98.8896 993.845 100.175 993.501 101.525C992.751 104.466 991.623 106.824 990.598 108.559C988.594 108.153 986.612 109.081 985.932 110.859C985.161 112.879 986.365 115.234 988.623 116.119C990.88 117.006 993.336 116.084 994.107 114.06C994.781 112.303 993.956 110.294 992.245 109.222C992.729 107.13 993.491 104.657 994.705 102C995.299 100.704 995.932 99.5234 996.58 98.4467C998.985 99.1055 1001.5 99.509 1004.08 99.6205C1004.51 101.672 1004.85 103.969 1005.01 106.479C1005.26 110.212 1005.06 113.516 1004.71 116.246C1002.74 116.632 1001.27 118.201 1001.27 120.076C1001.27 122.242 1003.24 124 1005.66 124C1008.08 124 1010.04 122.242 1010.04 120.076C1010.04 118.208 1008.58 116.641 1006.63 116.249C1006.3 113.459 1006.12 110.161 1006.3 106.479C1006.43 103.994 1006.71 101.702 1007.07 99.6278C1009.77 99.5234 1012.39 99.102 1014.9 98.4003C1015.11 98.7743 1015.33 99.1631 1015.53 99.5628C1016.89 102.202 1017.62 104.675 1018.02 106.655C1016.28 107.681 1015.39 109.675 1016.02 111.453C1016.74 113.495 1019.16 114.482 1021.45 113.66C1023.73 112.836 1024.99 110.514 1024.28 108.472C1023.64 106.662 1021.65 105.683 1019.62 106.057C1018.69 104.434 1017.6 101.982 1017.23 98.8425C1017.18 98.4541 1017.14 98.0723 1017.12 97.6982C1019.92 96.7189 1022.54 95.3834 1024.96 93.7488C1026.52 95.034 1028.16 96.5677 1029.8 98.3894C1032.31 101.19 1034.13 103.951 1035.45 106.298C1034.11 107.818 1033.88 109.981 1035.02 111.475C1036.32 113.192 1038.93 113.373 1040.85 111.878C1042.77 110.384 1043.27 107.782 1041.97 106.061C1040.84 104.578 1038.73 104.239 1036.94 105.143C1035.02 103.166 1032.88 100.665 1030.83 97.59C1029.5 95.6028 1028.4 93.6735 1027.49 91.8624C1028.47 91.0669 1029.4 90.2208 1030.28 89.3247C1031.73 87.8556 1033.06 86.2607 1034.23 84.5547C1036.39 85.1664 1038.89 86.0628 1041.54 87.4092C1044.09 88.7018 1046.22 90.1234 1047.94 91.4483C1047.28 93.3709 1047.9 95.4516 1049.51 96.3804C1051.37 97.4571 1053.85 96.6001 1055.05 94.4726C1056.25 92.3416 1055.72 89.7455 1053.86 88.6694C1052.24 87.7298 1050.14 88.2662 1048.83 89.8429C1046.92 89.1047 1044.59 87.9853 1042.18 86.2681C1039.68 84.4862 1037.79 82.5745 1036.42 80.9255C1037.35 79.1689 1038.13 77.3222 1038.75 75.3997C1039.79 75.4359 1040.88 75.5294 1042.02 75.702C1044.95 76.1488 1047.39 76.9875 1049.26 77.8228C1049.1 79.8744 1050.24 81.7537 1052.06 82.2251C1054.13 82.7651 1056.3 81.2784 1056.9 78.9024C1057.51 76.5264 1056.31 74.1651 1054.25 73.6251C1052.42 73.1495 1050.52 74.2445 1049.68 76.134C1047.69 75.9685 1045.14 75.5259 1042.35 74.4312C1041.29 74.0139 1040.31 73.5492 1039.42 73.0634C1039.87 71.2814 1040.18 69.4486 1040.34 67.5699C1042.14 67.4223 1044.06 67.3288 1046.07 67.3249C1049.64 67.314 1052.87 67.5731 1055.71 67.9549C1056.05 69.9315 1057.55 71.4361 1059.38 71.4938C1061.52 71.555 1063.31 69.618 1063.38 67.1664C1063.45 64.7148 1061.77 62.6773 1059.63 62.6161" fill="#FA5752" fill-opacity="0.75"/>
<path d="M1183.55 417.493C1179.4 417.371 1175.83 420.58 1174.82 424.991C1168.4 425.494 1161.06 425.665 1153.02 425.153C1148.54 424.86 1144.28 424.389 1140.3 423.805C1140.32 423.033 1140.33 422.253 1140.33 421.474C1140.33 417.681 1140.06 413.952 1139.55 410.304C1141.58 408.736 1144.12 407.087 1147.19 405.674C1152.52 403.205 1157.5 402.328 1161.35 402.076C1163.24 406.405 1167.57 408.924 1171.72 407.827C1176.39 406.593 1179.07 401.255 1177.68 395.902C1176.3 390.549 1171.41 387.202 1166.73 388.436C1162.48 389.566 1159.87 394.098 1160.49 398.948C1157.13 400.882 1152.12 402.977 1145.92 403.131C1142.87 403.213 1140.19 402.798 1138.02 402.263C1136.64 396.6 1134.67 391.174 1132.14 386.057C1134.81 383.62 1137.96 381.037 1141.66 378.542C1147.01 374.92 1152.17 372.329 1156.7 370.468C1159.65 373.962 1164.36 375.124 1168 372.996C1172.18 370.557 1173.35 364.684 1170.63 359.892C1167.9 355.1 1162.29 353.199 1158.11 355.644C1154.48 357.764 1153.11 362.475 1154.61 366.813C1150.72 369.867 1145.94 373.092 1140.19 375.968C1136.29 377.934 1132.55 379.428 1129.16 380.565C1126.4 375.879 1123.17 371.508 1119.53 367.519C1120.93 362.386 1123.29 356.391 1127.31 350.38C1131.09 344.759 1135.28 340.657 1138.85 337.773C1142.77 340.234 1147.71 339.852 1150.52 336.611C1153.72 332.94 1152.99 327.002 1148.88 323.347C1144.79 319.684 1138.88 319.69 1135.69 323.363C1132.88 326.604 1133.1 331.6 1136.02 335.246C1133.72 339.097 1130.23 343.873 1125.12 348.423C1119.47 353.442 1113.8 356.448 1109.48 358.235C1104.56 354.425 1099.2 351.192 1093.48 348.634C1094.31 346.302 1095.41 343.955 1096.86 341.648C1098.01 339.82 1099.26 338.212 1100.52 336.806C1104.87 338.601 1109.76 337.31 1111.95 333.549C1114.42 329.35 1112.61 323.646 1107.92 320.821C1103.22 317.994 1097.42 319.106 1094.95 323.314C1092.79 327.011 1093.92 331.867 1097.42 334.905C1096.69 336.856 1095.81 338.878 1094.75 340.94C1093.55 343.313 1092.25 345.499 1090.87 347.52C1090.28 347.285 1089.71 347.058 1089.13 346.847C1082.31 344.263 1075.04 342.631 1067.47 342.078C1066.22 338.683 1065.14 334.92 1064.38 330.787C1062.84 322.354 1063.12 315.015 1063.84 309.502C1068.3 308.638 1071.63 305.097 1071.63 300.854C1071.63 295.964 1067.2 292 1061.75 292C1056.28 292 1051.84 295.964 1051.84 300.854C1051.84 305.17 1055.29 308.76 1059.86 309.544C1060.85 314.977 1061.5 322.581 1059.98 331.396C1059.3 335.276 1058.29 338.812 1057.13 342.014C1049.86 342.428 1042.88 343.848 1036.28 346.135C1035.37 344.659 1034.54 343.108 1033.8 341.28C1032.35 337.659 1031.72 334.265 1031.47 331.441C1035.73 329.19 1037.93 324.468 1036.43 320.292C1034.77 315.699 1029.27 313.513 1024.13 315.412C1019.01 317.311 1016.18 322.573 1017.85 327.167C1019.28 331.13 1023.57 333.294 1028.01 332.593C1029.32 335.297 1030.56 338.415 1031.53 341.957C1032.06 343.832 1032.45 345.666 1032.74 347.46C1026.76 349.862 1021.14 352.996 1015.98 356.745C1013.27 354.756 1010.49 352.447 1007.75 349.742C1001.43 343.513 997.216 337.124 994.448 332.007C997.514 328.571 998.054 323.652 995.485 320.263C992.541 316.385 986.641 315.976 982.308 319.348C977.985 322.722 976.86 328.598 979.793 332.475C982.407 335.901 987.303 336.613 991.405 334.406C995.396 338.033 1000.59 343.753 1004.6 351.976C1006.45 355.737 1007.72 359.393 1008.63 362.804C1007.8 363.574 1006.96 364.369 1006.16 365.18C1002.13 369.272 998.528 373.802 995.441 378.704C993.621 378.174 991.736 377.532 989.806 376.745C983.532 374.186 978.669 370.924 975.14 368.081C976.64 363.66 975.173 358.891 971.446 356.822C967.223 354.471 961.665 356.499 959.041 361.353C956.405 366.204 957.707 372.043 961.952 374.393C965.668 376.459 970.41 375.139 973.288 371.493C977.566 372.992 982.903 375.397 988.405 379.346C990.048 380.525 991.548 381.738 992.949 382.958C988.593 390.908 985.549 399.695 984.105 409.024C980.345 409.349 976.287 409.506 971.931 409.369C965.712 409.176 960.099 408.438 955.192 407.477C955.082 402.598 951.862 398.515 947.496 398.05C942.688 397.539 938.332 401.586 937.759 407.09C937.196 412.593 940.626 417.467 945.422 417.977C949.701 418.431 953.604 415.272 954.828 410.694C959.857 410.797 965.502 411.253 971.622 412.319C975.868 413.058 979.782 413.999 983.41 415.046C983.234 417.165 983.157 419.307 983.157 421.474C983.157 426.62 983.631 431.651 984.557 436.53C980.389 439.322 974.655 442.487 967.344 444.71C960.937 446.659 955.17 447.322 950.572 447.465C948.918 443.127 944.816 440.421 940.659 441.233C935.928 442.16 932.918 447.315 933.954 452.747C934.991 458.181 939.677 461.834 944.408 460.907C948.51 460.105 951.3 456.143 951.311 451.575C956.019 450.024 961.577 448.569 967.895 447.622C975.151 446.534 981.668 446.377 987.159 446.619C989.354 453.352 992.441 459.676 996.246 465.465C994.448 466.905 992.452 468.326 990.192 469.654C985.88 472.198 981.745 473.781 978.15 474.804C975.724 470.873 971.181 469.028 967.256 470.634C962.79 472.471 960.816 478.116 962.867 483.241C964.157 486.458 966.726 488.717 969.571 489.488C971.248 489.951 973.023 489.895 974.688 489.213C975.173 489.009 975.647 488.757 976.077 488.456C979.341 486.265 980.731 481.721 979.352 477.386C982.749 475.611 986.718 473.853 991.283 472.404C994.228 471.474 997.029 470.795 999.664 470.29C1002.07 473.44 1004.71 476.396 1007.55 479.123C1007.81 479.383 1008.09 479.644 1008.35 479.886C1006.43 484.224 1003.55 489.496 999.19 494.841C994.922 500.073 990.489 503.882 986.751 506.572C983.013 503.882 978.106 503.94 975.096 506.953C971.655 510.389 971.986 516.368 975.835 520.307C979.661 524.238 985.572 524.646 989.001 521.209C991.989 518.227 992.132 513.322 989.596 509.512C992.529 505.636 996.356 501.267 1001.24 496.953C1006.5 492.323 1011.68 488.895 1016.2 486.369C1022.18 490.674 1028.79 494.158 1035.83 496.653C1035.56 499.341 1035.08 502.241 1034.3 505.288C1032.6 511.925 1030.07 517.245 1027.76 521.161C1023.23 520.242 1018.75 522.338 1017.22 526.351C1015.49 530.908 1018.21 536.221 1023.31 538.219C1028.39 540.217 1033.92 538.137 1035.68 533.572C1037.19 529.608 1035.34 525.076 1031.47 522.654C1032.56 517.935 1034.29 512.354 1037.02 506.359C1038.37 503.436 1039.79 500.771 1041.25 498.343C1046.68 499.829 1052.34 500.74 1058.18 500.991C1059.13 505.622 1059.9 510.803 1060.28 516.465C1060.84 524.888 1060.39 532.346 1059.6 538.503C1055.16 539.373 1051.84 542.914 1051.84 547.147C1051.84 552.037 1056.27 556 1061.75 556C1067.2 556 1071.63 552.037 1071.63 547.147C1071.63 542.93 1068.33 539.396 1063.92 538.511C1063.18 532.215 1062.78 524.775 1063.2 516.465C1063.49 510.859 1064.12 505.685 1064.91 501.007C1071.02 500.771 1076.94 499.821 1082.6 498.236C1083.08 499.081 1083.56 499.959 1084.02 500.861C1087.1 506.815 1088.75 512.396 1089.64 516.863C1085.71 519.178 1083.7 523.678 1085.12 527.692C1086.73 532.297 1092.22 534.523 1097.37 532.67C1102.51 530.81 1105.38 525.571 1103.76 520.965C1102.32 516.88 1097.84 514.669 1093.25 515.515C1091.14 511.851 1088.7 506.319 1087.85 499.236C1087.74 498.358 1087.66 497.498 1087.61 496.653C1093.91 494.443 1099.84 491.43 1105.3 487.742C1108.82 490.641 1112.52 494.102 1116.21 498.212C1121.88 504.532 1126 510.763 1128.98 516.059C1125.96 519.487 1125.44 524.369 1127.98 527.74C1130.94 531.614 1136.83 532.021 1141.16 528.649C1145.48 525.279 1146.61 519.406 1143.68 515.524C1141.13 512.176 1136.38 511.412 1132.34 513.452C1128 508.992 1123.18 503.347 1118.53 496.409C1115.53 491.925 1113.05 487.572 1111.01 483.485C1113.21 481.69 1115.3 479.781 1117.31 477.758C1120.57 474.444 1123.56 470.845 1126.21 466.995C1131.09 468.377 1136.73 470.4 1142.71 473.437C1148.47 476.354 1153.28 479.562 1157.15 482.551C1155.68 486.889 1157.07 491.584 1160.71 493.679C1164.9 496.109 1170.49 494.175 1173.21 489.375C1175.92 484.566 1174.71 478.709 1170.52 476.279C1166.85 474.16 1162.1 475.371 1159.17 478.929C1154.85 477.262 1149.6 474.737 1144.16 470.862C1138.51 466.841 1134.25 462.527 1131.16 458.807C1133.24 454.844 1135.01 450.677 1136.42 446.338C1138.76 446.42 1141.24 446.631 1143.8 447.021C1150.4 448.028 1155.9 449.92 1160.14 451.805C1159.77 456.436 1162.36 460.676 1166.45 461.74C1171.12 462.959 1176.02 459.603 1177.38 454.243C1178.74 448.882 1176.06 443.553 1171.38 442.334C1167.27 441.261 1162.98 443.731 1161.08 447.995C1156.59 447.622 1150.82 446.622 1144.52 444.154C1142.14 443.211 1139.94 442.163 1137.93 441.066C1138.93 437.046 1139.64 432.91 1140 428.67C1144.07 428.337 1148.4 428.126 1152.95 428.117C1160.98 428.094 1168.28 428.678 1174.68 429.539C1175.46 433.999 1178.84 437.395 1182.98 437.526C1187.81 437.663 1191.85 433.292 1192 427.761C1192.15 422.23 1188.37 417.631 1183.55 417.493" fill="#FA5752" fill-opacity="0.92"/>
<path d="M901.695 286.798V698.903" stroke="#925D51" stroke-width="5.81" stroke-miterlimit="10"/>
<path d="M820.28 285.333C820.28 285.333 891.312 315.068 982.377 281.834L933.199 171.64L860.353 169.89L820.28 285.333Z" fill="#AC6352"/>
<path d="M952.479 214.839C923.857 246.847 877.374 260.325 828.6 261.365L820.28 285.333C820.28 285.333 891.312 315.068 982.379 281.834L952.479 214.839Z" fill="#984B39"/>
<rect x="270.102" y="762.272" width="735.642" height="16.939" rx="8.46951" fill="#925D51"/>
<path fill-rule="evenodd" clip-rule="evenodd" d="M638.562 393.656C637.744 393.53 636.914 393.469 636.073 393.469H449.118H448.956C436.042 393.468 425.601 393.468 425.601 440.304V691.357C425.601 685.047 428.902 686.815 434.088 689.594C438.164 691.777 443.403 694.584 449.118 694.584H636.073C637.865 694.584 639.609 694.308 641.286 693.862H824.451C832.396 693.862 839.679 691.064 845.344 688.887C852.553 686.117 857.142 684.353 857.142 690.644V440.35C857.142 393.655 842.627 393.655 824.676 393.656H824.451H638.562Z" fill="#F5C827"/>
<g opacity="0.699997">
<g opacity="0.699997">
<path d="M440.629 524.238V690.898C440.629 678.92 450.083 694.329 461.746 694.329H629.623C638.121 694.329 645.442 686.159 648.791 686.353V690.898C648.791 688.619 649.133 687.336 649.761 686.745C650.395 687.336 650.739 688.619 650.739 690.898V686.351C654.067 686.189 661.307 694.329 669.709 694.329H836.002C847.555 694.329 856.92 678.92 856.92 690.898V424.073C856.92 421.404 856.888 418.906 856.835 416.514L440.629 524.238Z" fill="#DCB21D"/>
</g>
</g>
<path d="M459.291 648.111C459.291 665.026 449.498 678.737 437.417 678.737H389.295C377.214 678.737 367.42 665.026 367.42 648.111V537.856C367.42 520.941 377.214 507.229 389.295 507.229H437.417C449.498 507.229 459.291 520.941 459.291 537.856V648.111Z" fill="#EBAFB2"/>
<path d="M479.298 660.326C479.298 678.723 465.089 693.637 447.561 693.637H377.739C360.211 693.637 346.001 678.723 346.001 660.326V540.408C346.001 522.01 360.211 507.097 377.739 507.097H447.561C465.089 507.097 479.298 522.01 479.298 540.408V660.326Z" fill="#CAA41E"/>
<path d="M969.3 660.611C969.3 679.066 955.287 694.026 938.002 694.026H869.147C851.861 694.026 837.849 679.066 837.849 660.611V540.318C837.849 521.863 851.861 506.903 869.147 506.903H938.002C955.287 506.903 969.3 521.863 969.3 540.318V660.611Z" fill="#CAA41E"/>
<path d="M397.785 801.411C397.785 807.258 393.921 812 389.156 812C384.388 812 380.524 807.258 380.524 801.411V764.827C380.524 758.98 384.388 754.239 389.156 754.239C393.921 754.239 397.785 758.98 397.785 764.827V801.411Z" fill="#925D51"/>
<path d="M933.847 799.517C933.847 805.364 929.983 810.106 925.215 810.106C920.449 810.106 916.585 805.364 916.585 799.517V762.933C916.585 757.086 920.449 752.345 925.215 752.345C929.983 752.345 933.847 757.086 933.847 762.933V799.517Z" fill="#925D51"/>
<path d="M948.292 507.097H924.09C911.939 507.097 902.089 520.816 902.089 537.739V690.946H410.369V537.739C410.369 520.816 400.519 507.097 388.368 507.097H364.168C352.017 507.097 342.167 520.816 342.167 537.739V747.632C342.167 756.489 344.882 764.444 349.196 770.039C353.211 776.034 358.918 779.805 365.269 779.805L948.292 778.274C960.442 778.274 970.292 764.555 970.292 747.632V537.739C970.292 520.816 960.442 507.097 948.292 507.097Z" fill="#F5C827"/>
<path d="M535.693 523.195H446.151C442.744 523.195 439.983 526.376 439.983 530.3V633.451C439.983 637.376 442.744 640.557 446.151 640.557H535.693C539.1 640.557 541.861 637.376 541.861 633.451V530.3C541.861 526.376 539.1 523.195 535.693 523.195Z" fill="white"/>
<path d="M882.2 534.406L800.772 520.374C797.674 519.84 794.607 522.547 793.922 526.421L775.905 628.247C775.22 632.121 777.175 635.694 780.273 636.228L861.701 650.261C864.799 650.795 867.866 648.087 868.551 644.213L886.568 542.387C887.253 538.513 885.298 534.94 882.2 534.406Z" fill="white"/>
<path fill-rule="evenodd" clip-rule="evenodd" d="M588.556 714.351H431.069C419.309 714.351 409.776 699.43 409.776 681.023V651.028C409.776 632.621 419.309 617.699 431.069 617.699H636.554C638.344 617.699 640.082 618.045 641.743 618.696H872.948C889.481 618.696 902.884 633.463 902.884 651.681V681.366C902.884 699.584 889.481 714.351 872.948 714.351H636.554H588.556Z" fill="#FFE792"/>
<path d="M585.099 344.017C582.033 343.773 579.175 342.391 577.075 340.169C571.59 334.359 563.733 320.848 574.985 296.853C595.933 252.167 672.544 258.871 690.816 291.341C703.817 314.441 716.751 319.024 709.773 325.974C703.039 332.682 623.249 347.058 585.099 344.017Z" fill="#FF504A"/>
<path d="M720.128 612.483C720.045 612.494 719.956 612.506 719.873 612.517C703.305 614.9 686.504 617.089 669.655 618.375C668.69 618.445 667.723 618.52 666.754 618.578C648.924 619.83 631.046 620.018 613.353 618.299C607.55 617.736 601.762 616.958 596.036 615.924C583.233 613.615 574.604 601.667 576.677 588.984C578.63 577.076 579.905 565.795 580.744 555.19C580.87 553.613 580.991 552.056 581.091 550.513C581.941 538.134 582.216 526.734 582.306 516.379C582.31 515.498 582.318 514.627 582.322 513.766C582.322 513.376 582.33 512.988 582.33 512.607C582.333 512.016 582.333 511.43 582.333 510.852C582.341 510.456 582.341 510.067 582.341 509.686C582.341 508.878 582.345 508.091 582.341 507.303C582.353 504.882 582.345 502.53 582.353 500.247V499.641C582.357 491.738 582.389 484.664 582.711 478.462C582.723 478.178 582.734 477.903 582.757 477.625C582.828 476.337 582.894 475.059 582.957 473.8C583.013 472.579 583.075 471.37 583.119 470.173C583.252 466.815 583.343 463.578 583.397 460.487C583.429 457.887 583.429 455.396 583.389 453.032C583.339 450.409 583.244 447.952 583.094 445.676C583.036 444.923 582.984 444.145 582.923 443.346C582.828 442.136 582.726 440.881 582.62 439.592C582.557 438.808 582.489 438.019 582.409 437.216C582.374 436.866 582.345 436.511 582.31 436.151C582.306 436.062 582.295 435.976 582.289 435.894C582.243 435.398 582.197 434.904 582.152 434.4C582.102 433.911 582.052 433.422 582.004 432.928C581.925 432.066 581.838 431.187 581.742 430.301C581.33 426.167 580.85 421.827 580.363 417.378C580.203 415.984 580.047 414.569 579.889 413.152C579.637 410.957 579.383 408.738 579.136 406.53C578.967 405.104 578.803 403.677 578.641 402.253C576.17 380.802 573.845 360.264 574.671 353.746C576.103 342.46 631.458 312.672 631.458 312.672L664.685 311.641C664.685 311.641 711.325 330.192 719.929 341.39C719.975 341.445 720.014 341.502 720.056 341.553C722.007 344.191 723.236 347.856 723.939 352.386C724.569 356.369 724.793 361.015 724.746 366.226C724.725 369.935 724.561 373.932 724.319 378.171C724.063 382.666 723.714 387.435 723.331 392.43C723.221 393.883 723.105 395.355 722.99 396.844C722.87 398.358 722.757 399.885 722.639 401.431C722.564 402.43 722.489 403.438 722.414 404.449C722.212 407.118 722.013 409.835 721.834 412.589C721.776 413.477 721.713 414.375 721.655 415.275C721.616 415.841 721.584 416.418 721.553 416.988C721.516 417.572 721.482 418.154 721.449 418.742V418.753C721.418 419.293 721.383 419.828 721.358 420.366C721.318 420.952 721.291 421.539 721.262 422.129C721.206 423.209 721.148 424.291 721.104 425.383C721.058 426.283 721.021 427.192 720.987 428.099C720.973 428.259 720.967 428.428 720.967 428.591C720.937 429.177 720.913 429.765 720.898 430.347L720.888 430.653L720.881 430.799C720.858 431.566 720.831 432.346 720.809 433.118C720.779 434.046 720.756 434.972 720.732 435.894C720.723 436.321 720.719 436.76 720.711 437.193C720.7 437.576 720.696 437.971 720.688 438.359C720.688 438.557 720.684 438.747 720.684 438.949C720.673 439.483 720.665 440.018 720.659 440.567C720.651 441.478 720.65 442.401 720.65 443.346V444.841C720.652 447.456 720.68 450.189 720.732 453.032C720.752 454.206 720.779 455.396 720.806 456.604C720.834 457.884 720.869 459.177 720.902 460.487C720.987 463.241 721.077 466.054 721.191 468.918C721.202 469.337 721.216 469.751 721.235 470.173C721.243 470.345 721.247 470.514 721.254 470.685C721.289 471.619 721.326 472.556 721.37 473.505C721.43 474.869 721.493 476.248 721.549 477.625C721.613 479.116 721.717 480.696 721.85 482.362C722.013 484.447 722.223 486.657 722.477 488.992C722.533 489.538 722.597 490.091 722.664 490.647C722.768 491.543 722.87 492.455 722.997 493.382C723.067 493.964 723.136 494.542 723.215 495.133C723.263 495.506 723.311 495.881 723.363 496.257C723.546 497.661 723.745 499.104 723.955 500.573C723.978 500.736 724.001 500.898 724.022 501.061C724.13 501.805 724.248 502.552 724.352 503.313C724.565 504.762 724.796 506.242 725.029 507.741C725.099 508.161 725.162 508.589 725.23 509.013C725.634 511.565 726.07 514.182 726.524 516.858C726.603 517.324 726.69 517.803 726.771 518.281C726.952 519.334 727.139 520.396 727.325 521.464C727.98 525.188 728.674 528.998 729.398 532.868C730.243 537.343 731.124 541.896 732.037 546.483C732.784 550.256 733.558 554.051 734.34 557.845C736.17 566.721 738.073 575.593 739.951 584.153C742.88 597.481 733.795 610.515 720.128 612.483Z" fill="white"/>
<path d="M723.942 352.387C699.667 357.523 677.148 358.99 659.36 358.99C656.128 358.99 653.054 358.942 650.152 358.86C622.672 358.067 604.798 354.134 604.049 353.971L605.343 348.322L606.634 342.676H606.637C606.988 342.754 624.519 346.563 650.807 347.295C668.561 347.788 693.096 346.911 719.932 341.39C719.976 341.445 720.017 341.5 720.057 341.554C722.008 344.191 723.239 347.856 723.942 352.387Z" fill="#1DB776" fill-opacity="0.56"/>
<path d="M724.746 366.226C724.722 369.935 724.559 373.932 724.316 378.171C700.575 383.154 678.441 384.623 660.622 384.623C656.21 384.623 652.063 384.533 648.22 384.383C620.758 383.322 602.93 379.214 602.185 379.039L604.885 367.768C605.061 367.81 622.586 371.829 648.991 372.822C668.175 373.548 695.298 372.747 724.746 366.226Z" fill="#1DB776" fill-opacity="0.56"/>
<path d="M723.332 392.43C723.223 393.883 723.107 395.355 722.991 396.844C722.872 398.358 722.758 399.885 722.641 401.431C722.566 402.429 722.491 403.437 722.414 404.449C700.046 408.913 679.129 410.28 661.906 410.28C656.28 410.28 651.056 410.136 646.297 409.908C618.856 408.574 601.072 404.289 600.327 404.111L603.141 392.867C603.314 392.907 620.797 397.099 647.183 398.354C666.43 399.269 693.69 398.73 723.332 392.43Z" fill="#1DB776" fill-opacity="0.56"/>
<path d="M721.452 418.741V418.753C721.421 419.295 721.388 419.827 721.361 420.366C721.323 420.953 721.296 421.539 721.265 422.129C721.209 423.209 721.153 424.291 721.107 425.383C721.063 426.282 721.024 427.191 720.991 428.099C720.978 428.258 720.97 428.428 720.97 428.591C720.939 429.177 720.918 429.765 720.903 430.346L720.891 430.653C699.722 434.69 679.866 435.972 663.188 435.972C656.335 435.972 650.023 435.759 644.37 435.426C616.948 433.825 599.209 429.363 598.467 429.177L601.395 417.964H601.399C601.559 418.005 605.989 419.107 613.66 420.388C621.332 421.67 632.241 423.131 645.371 423.886C664.582 424.991 691.798 424.723 721.452 418.741Z" fill="#1DB776" fill-opacity="0.56"/>
<path d="M599.648 443.062L598.131 448.654L599.652 443.062H599.648ZM720.738 453.032C720.686 450.188 720.657 447.455 720.653 444.84C690.565 450.711 662.968 450.727 643.565 449.416C617.322 447.649 599.97 443.144 599.652 443.062L598.131 448.654L596.611 454.245C597.349 454.439 615.038 459.076 642.442 460.947C648.964 461.396 656.366 461.697 664.469 461.697C680.945 461.697 700.279 460.447 720.809 456.603C720.784 455.396 720.757 454.205 720.738 453.032Z" fill="#1DB776" fill-opacity="0.56"/>
<path d="M721.852 482.361C701.518 486.182 682.294 487.453 665.743 487.453C656.381 487.453 647.877 487.046 640.511 486.471C613.13 484.322 595.487 479.514 594.748 479.313L596.327 473.737L597.901 468.16H597.903C598.184 468.238 615.497 472.919 641.752 474.952C661.65 476.49 690.189 476.721 721.257 470.684C721.292 471.62 721.33 472.557 721.372 473.504C721.432 474.868 721.496 476.247 721.554 477.626C721.617 479.115 721.721 480.695 721.852 482.361Z" fill="#1DB776" fill-opacity="0.56"/>
<path d="M725.032 507.74C704.097 511.863 684.207 513.238 667.007 513.238C656.375 513.238 646.775 512.711 638.585 511.991C611.22 509.573 593.625 504.591 592.887 504.381L596.156 493.261V493.257C596.325 493.307 613.621 498.185 639.939 500.483C660.639 502.293 690.732 502.776 723.366 496.257C723.549 497.662 723.747 499.104 723.957 500.572C723.98 500.736 724.004 500.897 724.027 501.061C724.133 501.804 724.25 502.552 724.354 503.313C724.568 504.764 724.799 506.241 725.032 507.74Z" fill="#1DB776" fill-opacity="0.56"/>
<path d="M729.4 532.867C707.433 537.51 686.44 539.052 668.252 539.052C656.351 539.052 645.65 538.392 636.653 537.51C609.306 534.821 591.758 529.667 591.024 529.446L594.406 518.36C594.576 518.408 611.826 523.459 638.125 526.017C660.015 528.147 692.431 528.896 727.327 521.464C727.982 525.188 728.674 528.997 729.4 532.867Z" fill="#1DB776" fill-opacity="0.56"/>
<path d="M734.34 557.846C711.133 563.146 688.832 564.902 669.489 564.902C656.309 564.902 644.505 564.088 634.723 563.026C607.399 560.067 589.895 554.738 589.165 554.514L590.914 548.985L592.657 543.458L592.661 543.462C592.933 543.542 610.115 548.738 636.312 551.551C659.525 554.04 694.613 555.094 732.036 546.482C732.784 550.255 733.558 554.05 734.34 557.846Z" fill="#1DB776" fill-opacity="0.56"/>
<path d="M644.982 596.906C646.105 549.164 637.827 493.613 637.896 445.857C637.96 403.039 641.128 360.529 641.093 317.711C630.748 318.479 626.305 320.223 626.305 320.223C626.305 320.223 616.412 328.557 584.224 338.914C553.87 348.68 559.512 459.379 561.357 521.338C563.2 583.298 562.468 622.581 622.139 630.11C627.744 630.818 633.248 631.442 638.639 631.965C638.73 617.796 644.649 611.109 644.982 596.906Z" fill="#FB4C47"/>
<path d="M580.249 471.021C579.608 471.021 579.03 470.578 578.891 469.931C578.729 469.191 579.209 468.461 579.96 468.301C580.721 468.139 598.631 464.113 604.807 442.938C605.016 442.208 605.789 441.789 606.528 441.997C607.266 442.206 607.694 442.968 607.48 443.697C600.831 466.508 581.364 470.817 580.538 470.99C580.442 471.011 580.343 471.021 580.249 471.021Z" fill="#B63A37"/>
<path d="M632.34 587.501C631.763 587.501 631.277 587.056 631.244 586.478C626.441 500.988 622.619 417.42 628.544 334.937C628.588 334.34 629.116 333.893 629.717 333.933C630.324 333.975 630.778 334.494 630.736 335.091C624.817 417.447 628.637 500.94 633.438 586.356C633.471 586.955 633.007 587.466 632.402 587.499C632.381 587.501 632.362 587.501 632.34 587.501Z" fill="#B63A37"/>
<path d="M748.554 382.275C749.993 338.169 728.479 326.528 685.544 320.17C685.377 320.145 685.213 320.121 685.045 320.098C684.356 327.384 684.608 334.784 685.09 342.058C685.86 353.692 687.228 365.259 687.701 376.912C689.685 425.538 694.504 458.566 690.548 522.388C687.572 570.356 695.338 595.533 696.698 631.881C721.071 628.205 740.253 618.41 752.065 598.534C774.225 561.245 747.117 426.381 748.554 382.275Z" fill="#FB4C47"/>
<path d="M743.512 469.533C743.408 469.533 743.306 469.524 743.2 469.499C742.913 469.434 714.366 462.517 709.541 421.523C709.453 420.77 710 420.087 710.764 420.001C711.533 419.908 712.219 420.454 712.305 421.207C716.907 460.294 743.552 466.76 743.822 466.819C744.571 466.989 745.039 467.726 744.868 468.466C744.721 469.101 744.147 469.533 743.512 469.533Z" fill="#B63A37"/>
<path d="M699.973 579.658C699.446 579.658 698.98 579.281 698.891 578.749C696.878 566.679 697.651 534.299 698.4 502.987C698.968 479.166 699.505 456.667 698.878 443.113C696.757 397.225 690.407 333.136 690.343 332.495C690.283 331.9 690.724 331.369 691.327 331.31C691.926 331.253 692.469 331.687 692.527 332.282C692.591 332.925 698.947 397.067 701.071 443.012C701.701 456.642 701.164 479.177 700.594 503.038C699.848 534.251 699.078 566.527 701.058 578.397C701.156 578.986 700.752 579.546 700.153 579.643C700.093 579.652 700.033 579.658 699.973 579.658Z" fill="#B63A37"/>
<path d="M660.939 219.014L639.827 226.585C639.827 226.585 633.494 235.208 625.191 233.43C621.86 232.715 618.214 230.328 614.53 225.047C601.66 206.584 632.702 181.004 651.36 185.302C660.511 187.409 662.992 195.564 663.14 203.326C663.296 211.384 660.939 219.014 660.939 219.014Z" fill="#002014"/>
<path d="M660.938 219.014L639.826 226.585C639.826 226.585 633.493 235.208 625.19 233.43C625.19 223.868 638.775 206.384 663.139 203.326C663.296 211.384 660.938 219.014 660.938 219.014Z" fill="#FFD339"/>
<path d="M660.587 182.13C660.206 182.13 659.792 182.174 659.343 182.262C658.249 182.478 657.54 183.003 657.115 183.914C655.217 187.969 659.218 197.627 662.076 203.332C663.842 197.003 665.959 186.423 662.968 183.089C662.392 182.448 661.608 182.13 660.587 182.13ZM662.409 208.094C661.934 208.094 661.489 207.842 661.254 207.423C660.243 205.633 651.475 189.74 654.711 182.819C655.489 181.155 656.912 180.075 658.825 179.698C662.084 179.057 663.956 180.246 664.95 181.354C670.146 187.148 664.347 205.162 663.669 207.197C663.503 207.689 663.06 208.039 662.536 208.089C662.494 208.093 662.452 208.094 662.409 208.094Z" fill="#FFD339"/>
<path d="M678.439 188.562C678.314 188.562 678.187 188.57 678.059 188.589C673.585 189.176 668.179 198.547 665.32 204.475C671.262 202.004 680.687 197.286 681.939 192.995C682.22 192.029 682.031 191.175 681.347 190.304C680.427 189.135 679.473 188.562 678.439 188.562ZM662.78 208.178C662.423 208.178 662.075 208.037 661.823 207.775C661.458 207.398 661.354 206.846 661.557 206.367C662.393 204.391 669.939 187.02 677.709 185.996C679.198 185.801 681.399 186.109 683.437 188.699C684.635 190.22 684.997 191.957 684.483 193.718C682.345 201.042 665.182 207.398 663.232 208.1C663.084 208.153 662.932 208.178 662.78 208.178Z" fill="#FFD339"/>
<path d="M623.594 236.145C618.983 235.464 613.798 233.037 610.543 226.333C602.856 210.508 621.24 197.153 621.427 197.02C621.803 196.752 622.327 196.837 622.598 197.206C622.87 197.577 622.785 198.096 622.41 198.364C622.234 198.49 604.978 211.044 612.055 225.616C618.371 238.617 632.275 234.043 632.862 233.839C633.303 233.691 633.779 233.921 633.931 234.353C634.082 234.785 633.851 235.256 633.411 235.407C633.329 235.435 628.831 236.917 623.594 236.145Z" fill="#002014"/>
<path d="M684.761 238.1C684.761 238.1 693.001 272.263 681.556 294.376C670.114 316.489 658.615 322.512 675.048 329.381C691.482 336.249 710.178 323.166 722.725 329.971C737.871 338.185 720.887 269.243 713.318 240.067C705.569 210.213 668.773 206.872 668.773 206.872L684.761 238.1Z" fill="#002014"/>
<path d="M706.542 262.648C706.542 262.648 721.265 229.352 693.66 213.679C666.054 198.006 638.17 209.843 630.741 227.888C623.312 245.932 634.687 257.802 634.687 257.802L706.542 262.648Z" fill="#002014"/>
<path d="M659.229 332.95C667.198 335.135 670.385 331.647 672.831 329.053L674.478 314.947L675.441 306.72L675.642 305.508L671.978 305.107L644.947 297.408L641.292 314.356L639.554 322.391C643.029 325.63 647.646 329.774 659.229 332.95Z" fill="#FBB990"/>
<path d="M674.476 314.947C666.1 318.676 649.58 316.982 641.29 314.355C641.261 314.352 641.24 314.342 641.211 314.332L644.945 297.408L671.976 305.107L675.64 305.508L675.439 306.719L674.476 314.947Z" fill="#181818"/>
<path d="M696.547 262.853C696.547 262.853 712.597 258.247 709.448 272.248C705.979 287.665 693.202 283.288 691.002 282.29L696.547 262.853Z" fill="#FB9476"/>
<path d="M685.015 288.459C684.127 294.325 688.238 299.81 694.178 300.686C700.12 301.563 705.675 297.505 706.563 291.637C707.319 286.634 704.432 281.917 699.885 280.091C699.877 280.101 699.869 280.112 699.862 280.129C699.097 280.327 698.937 280.909 698.866 281.542C702.899 282.959 705.494 287.048 704.839 291.384C704.093 296.308 699.428 299.72 694.436 298.984C689.449 298.248 685.994 293.638 686.739 288.714C687.074 286.489 688.211 284.576 689.815 283.216C690.231 282.866 690.678 282.55 691.15 282.276C690.73 281.902 690.331 281.466 689.979 280.968C689.546 281.234 689.122 281.537 688.733 281.868C686.795 283.49 685.418 285.787 685.015 288.459Z" fill="white"/>
<path d="M698.342 277.713C698.311 277.709 698.28 277.702 698.249 277.694C697.785 277.574 697.504 277.105 697.625 276.644C699.411 269.849 704.478 267.494 704.692 267.397C705.129 267.202 705.647 267.39 705.848 267.824C706.046 268.255 705.855 268.765 705.42 268.963C705.229 269.05 700.88 271.11 699.313 277.078C699.199 277.508 698.777 277.778 698.342 277.713Z" fill="#FA7764"/>
<path d="M704.085 274.853C703.838 274.817 703.609 274.678 703.47 274.452C703.445 274.414 702.373 272.732 700.838 272.713C700.358 272.711 699.971 272.32 699.975 271.844C699.982 271.369 700.375 270.988 700.857 270.994C703.359 271.019 704.894 273.451 704.957 273.554C705.208 273.961 705.077 274.49 704.667 274.737C704.486 274.845 704.279 274.881 704.085 274.853Z" fill="#FA7764"/>
<path d="M705.348 260.933C704.351 266.501 702.814 271.912 700.901 276.986C700.04 279.285 699.092 281.512 698.089 283.654C691.016 298.747 680.851 309.622 672.73 310.563C659.873 312.056 645.28 305.854 638.124 289.299C636.955 286.594 635.73 283.327 635.144 279.477C635.066 278.943 634.988 278.395 634.923 277.836C632.825 260.636 637.244 236.115 637.244 236.115C647.782 220.581 670.436 224.721 683.578 226.857C696.729 228.997 709.927 235.45 705.348 260.933Z" fill="#FFC29C"/>
<path d="M669.174 301.674C666.383 301.263 664.734 300.014 664.663 299.96C664.283 299.668 664.214 299.127 664.511 298.753C664.805 298.378 665.35 298.31 665.73 298.601C665.759 298.622 667.236 299.709 669.7 300.008C672.211 300.31 673.895 299.738 673.91 299.732C674.363 299.574 674.861 299.808 675.023 300.253C675.185 300.698 674.952 301.191 674.501 301.351C674.418 301.381 672.438 302.071 669.49 301.716C669.382 301.704 669.278 301.689 669.174 301.674Z" fill="#FB9476"/>
<path d="M620.239 466.759C619.68 466.759 619.16 466.407 618.979 465.853C617.086 460.096 615.78 453.602 615.724 453.328C615.583 452.618 616.049 451.932 616.768 451.791C617.482 451.652 618.182 452.112 618.322 452.822C618.336 452.888 619.655 459.44 621.498 465.047C621.724 465.733 621.342 466.471 620.647 466.694C620.512 466.738 620.373 466.759 620.239 466.759Z" fill="#108A57"/>
<path d="M627.309 464.416C626.756 464.416 626.242 464.073 626.055 463.528C624.085 457.797 622.692 451.323 622.635 451.051C622.482 450.344 622.941 449.65 623.657 449.501C624.372 449.351 625.073 449.804 625.225 450.509C625.239 450.576 626.645 457.107 628.563 462.687C628.798 463.372 628.426 464.113 627.735 464.345C627.592 464.393 627.45 464.416 627.309 464.416Z" fill="#108A57"/>
<path d="M634.385 462.073C633.84 462.073 633.329 461.738 633.136 461.201C631.091 455.498 629.612 449.045 629.55 448.773C629.39 448.069 629.837 447.369 630.552 447.211C631.262 447.054 631.973 447.495 632.133 448.2C632.148 448.265 633.641 454.775 635.633 460.329C635.877 461.009 635.515 461.755 634.828 461.996C634.681 462.048 634.531 462.073 634.385 462.073Z" fill="#108A57"/>
<path d="M641.452 459.73C640.913 459.73 640.408 459.403 640.21 458.875C638.087 453.2 636.523 446.767 636.458 446.496C636.287 445.794 636.726 445.088 637.438 444.921C638.149 444.753 638.862 445.187 639.033 445.889C639.049 445.953 640.628 452.443 642.695 457.969C642.947 458.646 642.596 459.4 641.911 459.649C641.761 459.704 641.604 459.73 641.452 459.73Z" fill="#108A57"/>
<path d="M648.526 457.388C647.995 457.388 647.492 457.068 647.29 456.549C645.092 450.9 643.44 444.489 643.372 444.219C643.191 443.519 643.621 442.808 644.329 442.631C645.038 442.454 645.759 442.878 645.938 443.578C645.955 443.641 647.621 450.111 649.761 455.611C650.023 456.285 649.684 457.042 649 457.3C648.844 457.359 648.684 457.388 648.526 457.388Z" fill="#108A57"/>
<path d="M655.595 455.046C655.069 455.046 654.572 454.734 654.366 454.222C652.091 448.602 650.354 442.21 650.281 441.94C650.092 441.244 650.512 440.527 651.219 440.341C651.926 440.154 652.65 440.569 652.839 441.267C652.856 441.331 654.61 447.781 656.824 453.252C657.095 453.924 656.764 454.684 656.086 454.952C655.924 455.015 655.758 455.046 655.595 455.046Z" fill="#108A57"/>
<path d="M662.666 452.703C662.146 452.703 661.655 452.398 661.443 451.896C659.093 446.303 657.269 439.932 657.192 439.664C656.994 438.969 657.404 438.247 658.109 438.051C658.812 437.855 659.544 438.26 659.74 438.956C659.76 439.021 661.599 445.449 663.889 450.894C664.168 451.56 663.849 452.326 663.173 452.602C663.007 452.67 662.835 452.703 662.666 452.703Z" fill="#108A57"/>
<path d="M700.766 313.328C700.496 316.738 699.855 320.143 698.678 323.324C698.379 324.138 698.042 324.935 697.665 325.715V325.719C695.767 329.682 692.898 333.174 688.679 335.728C688.679 335.728 668.111 344.361 643.881 333.766H643.877C642.502 333.163 641.113 332.495 639.713 331.763C638.489 331.124 637.264 330.434 636.036 329.69C625.512 323.324 621.34 314.745 620.199 306.575C620.097 305.846 620.018 305.126 619.962 304.401C619.516 298.64 620.457 293.212 621.584 289.076C621.661 288.802 621.736 288.532 621.812 288.271C623.031 284.057 624.365 281.375 624.365 281.375C624.365 281.375 629.812 279.038 636.958 277.965C639.676 277.558 642.64 277.334 645.645 277.492C649.056 277.667 652.521 278.336 655.738 279.785C678.712 290.135 690.347 294.757 697.014 285.873C697.014 285.873 698.171 289.179 699.227 294.158C699.377 294.865 699.521 295.601 699.666 296.37C700.055 298.481 700.404 300.81 700.633 303.266C700.935 306.482 701.039 309.903 700.766 313.328Z" fill="#0CAD69"/>
<path d="M699.667 296.369C699.361 296.837 699.016 297.311 698.638 297.782C695.728 301.413 690.073 305.593 679.458 305.593C678.807 305.593 678.141 305.578 677.453 305.544C667.16 305.059 659.136 300.863 651.374 296.807C642.11 291.967 633.356 287.391 621.741 289.806L621.585 289.076L621.431 288.345C621.56 288.321 621.689 288.294 621.815 288.271C633.768 285.919 642.668 290.569 652.081 295.489C659.697 299.466 667.573 303.583 677.525 304.049C686.545 304.479 693.232 302.075 697.408 296.911C698.157 295.985 698.754 295.048 699.228 294.157C699.38 294.863 699.523 295.601 699.667 296.369Z" fill="#108E59"/>
<path d="M698.675 323.324C698.376 324.138 698.039 324.935 697.662 325.715V325.718C693.813 327.9 689.202 329.395 683.869 330.186C680.837 330.639 677.573 330.861 674.088 330.861C669.552 330.861 664.647 330.481 659.411 329.72C643.704 327.426 630.276 322.421 630.139 322.367L630.68 320.971C630.813 321.023 644.109 325.979 659.658 328.244C672.027 330.039 688.056 330.418 698.675 323.324Z" fill="#108E59"/>
<path d="M662.359 442.994L615.786 458.011C615.786 458.011 615.17 455.331 614.216 450.774C614.005 449.759 613.773 448.646 613.533 447.45C612.874 444.215 612.117 440.356 611.318 436.05C611.117 434.958 610.915 433.842 610.711 432.695C610.064 429.093 609.401 425.24 608.758 421.212C608.581 420.095 608.402 418.968 608.228 417.825C607.65 414.059 607.09 410.175 606.579 406.233C606.431 405.09 606.285 403.943 606.144 402.791C605.667 398.89 605.243 394.957 604.892 391.056C604.782 389.888 604.684 388.723 604.594 387.561C604.272 383.496 604.037 379.489 603.92 375.615C603.885 374.423 603.858 373.243 603.844 372.078C603.791 367.738 603.9 363.599 604.214 359.778C604.316 358.525 604.442 357.312 604.59 356.136C604.692 355.284 604.813 354.451 604.94 353.641C605.549 349.856 606.393 346.424 607.412 343.308C607.835 342 608.294 340.75 608.777 339.554C617.398 318.173 634.331 313.959 634.331 313.959C646.871 315.188 652.384 328.419 652.384 328.419C649.755 330.893 647.856 334.292 646.553 338.369C646.216 339.427 645.918 340.53 645.662 341.673C644.964 344.735 644.541 348.097 644.344 351.675C644.281 352.785 644.242 353.917 644.223 355.064C644.167 358.407 644.285 361.903 644.545 365.495C644.624 366.617 644.718 367.745 644.824 368.881C645.149 372.34 645.592 375.87 646.126 379.413C646.297 380.543 646.475 381.667 646.659 382.795C647.241 386.321 647.904 389.85 648.622 393.333C648.849 394.453 649.088 395.565 649.327 396.676C650.101 400.257 650.926 403.772 651.769 407.165C652.043 408.27 652.318 409.36 652.599 410.436C653.532 414.078 654.483 417.553 655.398 420.78C655.712 421.889 656.026 422.973 656.332 424.021C657.463 427.891 658.522 431.324 659.427 434.171C659.801 435.345 660.146 436.415 660.46 437.379C661.629 440.944 662.359 442.994 662.359 442.994Z" fill="#0CAD69"/>
<path d="M646.549 338.37C646.212 339.427 645.914 340.528 645.657 341.671C637.414 340.667 622.44 339.733 607.407 343.309C607.831 342 608.289 340.749 608.773 339.555C616.244 337.959 623.421 337.428 629.343 337.369C636.335 337.295 642.35 337.832 646.549 338.37Z" fill="#108E59"/>
<path d="M644.341 351.675C644.277 352.784 644.239 353.916 644.219 355.063C634.381 354.646 618.928 355.038 604.211 359.777C604.313 358.526 604.438 357.313 604.586 356.135C614.342 353.174 624.069 352.048 631.706 351.694C636.465 351.474 640.766 351.521 644.341 351.675Z" fill="#108E59"/>
<path d="M644.82 368.88C634.319 369.055 618.55 370.352 603.916 375.617C603.881 374.424 603.854 373.243 603.839 372.077C614.613 368.35 625.625 366.714 634.065 366.02C637.905 365.702 641.445 365.552 644.539 365.497C644.62 366.617 644.714 367.745 644.82 368.88Z" fill="#108E59"/>
<path d="M646.66 382.795C635.814 383.516 619.668 385.532 604.891 391.057C604.783 389.887 604.685 388.723 604.594 387.561C619.456 382.126 635.3 380.132 646.126 379.414C646.298 380.541 646.475 381.667 646.66 382.795Z" fill="#108E59"/>
<path d="M649.323 396.675C638.302 397.908 621.666 400.57 606.575 406.234C606.427 405.091 606.281 403.944 606.14 402.79C621.302 397.191 637.622 394.557 648.618 393.332C648.845 394.454 649.084 395.566 649.323 396.675Z" fill="#108E59"/>
<path d="M652.597 410.437C641.547 412.158 624.315 415.49 608.756 421.212C608.579 420.096 608.401 418.968 608.226 417.825C623.733 412.203 640.708 408.9 651.769 407.163C652.041 408.27 652.316 409.36 652.597 410.437Z" fill="#108E59"/>
<path d="M656.337 424.022C645.409 426.218 627.484 430.283 611.323 436.049C611.122 434.959 610.918 433.843 610.714 432.696C626.805 427.006 644.467 422.987 655.403 420.779C655.717 421.888 656.031 422.972 656.337 424.022Z" fill="#108E59"/>
<path d="M660.458 437.379C649.874 440.009 631.141 444.941 614.217 450.774C614.003 449.758 613.774 448.646 613.531 447.449C630.357 441.675 648.834 436.809 659.426 434.171C659.801 435.344 660.144 436.415 660.458 437.379Z" fill="#108E59"/>
<path d="M643.88 333.766H643.876C643.532 333.747 643.177 333.707 642.809 333.638C641.69 333.429 640.662 332.773 639.71 331.763C631.704 323.235 629.641 289.58 629.641 289.58C629.641 289.58 632.642 282.256 636.958 277.967C639.674 277.56 642.64 277.336 645.645 277.494C646.267 283.814 648.42 303.962 650.924 309.506C653.804 315.873 653.436 334.27 643.88 333.766Z" fill="#128E5A"/>
<path d="M700.767 313.328C689.066 322.294 663.53 317.132 640.213 310.348C632.246 308.03 625.609 306.948 620.199 306.577C620.1 305.848 620.019 305.126 619.964 304.403C630.099 305.029 643.678 307.841 660.498 311.615C685.445 317.208 696.809 307.767 700.636 303.268C700.938 306.484 701.04 309.907 700.767 313.328Z" fill="#108E59"/>
<path d="M683.859 267.722C683.474 270.152 684.271 272.296 685.643 272.509C687.02 272.724 688.449 270.923 688.834 268.49C688.986 267.532 688.954 266.623 688.776 265.854C691.222 266.337 692.272 264.949 692.272 264.949C690.648 264.924 688.578 264.259 687.601 263.912C687.257 263.785 687.045 263.703 687.045 263.703C685.673 263.488 684.246 265.286 683.859 267.722Z" fill="#181818"/>
<path d="M687.047 263.702C687.047 263.702 687.257 263.784 687.604 263.912C687.433 263.805 687.247 263.733 687.047 263.702Z" fill="#181818"/>
<path d="M700.905 276.986C700.042 279.285 699.096 281.512 698.093 283.654C696.987 283.663 695.801 283.587 694.578 283.416C689.113 282.653 684.936 280.291 685.246 278.142C685.556 275.995 690.236 274.875 695.695 275.636C697.642 275.908 699.428 276.383 700.905 276.986Z" fill="#FD9B7E"/>
<path d="M660.798 273.925C660.486 276.097 655.76 277.229 650.24 276.457C644.72 275.683 640.498 273.298 640.811 271.126C641.122 268.956 645.85 267.822 651.368 268.594C656.889 269.368 661.111 271.753 660.798 273.925Z" fill="#FD9B7E"/>
<path d="M638.011 260.194C638.31 258.138 637.424 256.1 635.725 254.879C631.512 251.853 625.871 250.139 623.076 255.639C617.887 265.849 627.315 279.53 635.471 277.728L638.011 260.194Z" fill="#FBB990"/>
<path d="M639.721 277.057C639.563 277.202 639.407 277.341 639.247 277.468C638.779 277.851 638.301 278.176 637.814 278.446C636.92 278.946 636.015 279.271 635.148 279.479C635.066 278.94 634.99 278.394 634.929 277.835C635.549 277.689 636.187 277.476 636.816 277.162C637.327 276.924 637.837 276.622 638.323 276.247C638.515 276.097 638.712 275.933 638.895 275.764C639.199 275.471 639.634 275.536 639.862 275.901C640.089 276.259 640.033 276.784 639.721 277.057Z" fill="#FB9476"/>
<path d="M631.828 270.63C631.401 270.568 631.075 270.197 631.087 269.759C631.256 262.867 626.828 259.187 626.784 259.151C626.414 258.849 626.358 258.308 626.662 257.941C626.967 257.572 627.514 257.517 627.887 257.818C628.095 257.987 633.02 262.034 632.83 269.799C632.818 270.275 632.418 270.651 631.938 270.638C631.899 270.638 631.865 270.634 631.828 270.63Z" fill="#FB9476"/>
<path d="M626.263 265.802C626.063 265.772 625.874 265.675 625.734 265.513C625.42 265.154 625.458 264.614 625.822 264.302C625.924 264.214 628.373 262.155 631.121 262.873C631.585 262.995 631.863 263.467 631.739 263.927C631.614 264.385 631.135 264.656 630.672 264.538C628.823 264.055 626.98 265.589 626.961 265.605C626.76 265.774 626.504 265.838 626.263 265.802Z" fill="#FB9476"/>
<path d="M677.49 276.925H677.496H677.49ZM673.116 281.269C672.763 281.217 672.451 280.955 672.38 280.55C672.313 280.17 672.538 279.797 672.892 279.629C675.036 278.625 677.103 277.334 677.463 276.788C677.166 275.219 675.99 268.985 675.56 266.703C675.471 266.235 675.783 265.79 676.257 265.702C676.729 265.615 677.184 265.921 677.272 266.387C677.717 268.745 678.956 275.308 679.202 276.607C679.289 277.056 679.547 278.42 673.617 281.195C673.455 281.271 673.28 281.293 673.116 281.269" fill="#FB9476"/>
<path d="M662.051 264.505C661.698 266.941 660.302 268.76 658.927 268.569C657.547 268.377 656.713 266.241 657.064 263.803C657.203 262.845 657.503 261.983 657.9 261.3C655.417 261.057 654.824 259.425 654.824 259.425C656.384 259.87 658.563 259.832 659.599 259.783C659.967 259.76 660.192 259.741 660.192 259.741C661.567 259.933 662.403 262.063 662.051 264.505Z" fill="#181818"/>
<path d="M660.198 259.741C660.198 259.741 659.972 259.76 659.604 259.781C659.798 259.73 659.997 259.711 660.198 259.741Z" fill="#181818"/>
<path d="M696.447 263.833C695.948 262.815 695.293 261.801 694.586 260.889C693.873 259.97 693.072 259.135 692.215 258.401C691.364 257.655 690.428 257.045 689.459 256.556C688.503 256.035 687.46 255.75 686.452 255.493L686.348 255.468C685.252 255.191 684.593 254.088 684.875 253.007C685.154 251.925 686.271 251.273 687.365 251.551C687.492 251.583 687.621 251.63 687.735 251.684C689.008 252.281 690.243 252.937 691.296 253.812C692.363 254.656 693.317 255.609 694.114 256.653C694.921 257.688 695.607 258.785 696.173 259.928C696.737 261.079 697.194 262.233 697.518 263.49C697.595 263.789 697.414 264.091 697.111 264.167C696.847 264.234 696.58 264.105 696.466 263.871L696.447 263.833Z" fill="#111111"/>
<path d="M649.505 256.454C650.381 255.269 651.356 254.24 652.44 253.266C653.523 252.3 654.711 251.431 655.998 250.68C657.275 249.915 658.677 249.312 660.149 248.871C661.62 248.388 663.184 248.211 664.762 248.11C665.888 248.038 666.861 248.883 666.934 249.995C667.005 251.108 666.152 252.068 665.025 252.14C664.914 252.148 664.802 252.144 664.694 252.135L664.563 252.121C663.357 251.998 662.107 251.897 660.859 252.085C659.609 252.23 658.348 252.521 657.128 252.989C655.905 253.441 654.707 254.023 653.567 254.727C652.438 255.429 651.329 256.256 650.379 257.156L650.349 257.184C650.125 257.397 649.769 257.388 649.553 257.167C649.361 256.969 649.347 256.667 649.505 256.454Z" fill="#111111"/>
<path d="M648.516 234.183C648.516 234.183 664.676 255.961 702.431 254.896C722.743 254.324 705.102 223.004 674.824 221.243C644.544 219.484 648.516 234.183 648.516 234.183Z" fill="#002014"/>
<path d="M702.528 251.488C702.528 251.488 704.797 268.096 700.904 276.986C700.904 276.986 708.204 262.119 705.927 252.722C703.651 243.325 702.528 251.488 702.528 251.488Z" fill="#181818"/>
<path d="M658.639 234.248C658.639 234.248 640.644 264.539 645.047 288.991C649.446 313.441 655.874 332.907 638.125 334.732C620.559 336.541 608.908 329.729 593.179 335.87H593.176C593.012 335.936 592.85 335.999 592.682 336.068C592.27 336.235 591.9 336.336 591.56 336.381C588.836 336.727 588.314 333.217 589.335 327.226C589.699 325.107 590.252 322.684 590.966 320.008C594.279 307.618 601.094 289.891 608.496 272.854C614.31 259.474 620.487 246.519 625.62 236.911C627.491 233.411 629.224 230.361 630.748 227.887C646.992 201.575 683.172 208.994 683.172 208.994L658.639 234.248Z" fill="#002014"/>
<path d="M626.7 238.062C626.534 238.361 617.37 255.002 608.493 272.853C601.249 287.417 594.197 302.792 592.37 310.76C591.584 314.193 591.15 317.274 590.962 320.009C590.364 328.754 592.279 333.963 593.171 335.869C593.009 335.935 592.845 336 592.68 336.066C592.267 336.236 591.896 336.336 591.555 336.38C590.848 334.838 589.752 331.816 589.332 327.225C588.939 322.982 589.128 317.394 590.73 310.393C594.846 292.434 623.988 239.511 625.225 237.267C625.315 237.102 625.456 236.984 625.618 236.912C625.849 236.807 626.124 236.807 626.363 236.938C626.771 237.155 626.924 237.659 626.7 238.062Z" fill="#002014"/>
<g opacity="0.399994">
<g opacity="0.399994">
<g opacity="0.399994">
<g opacity="0.399994">
<g opacity="0.399994">
<g opacity="0.399994">
<path opacity="0.399994" d="M679.997 254.942C679.997 254.942 660.393 249.063 654.81 270.345C649.224 291.624 668.549 301.179 680.806 298.84C693.066 296.499 701.13 258.551 679.997 254.942Z" fill="#FFC29C"/>
</g>
</g>
</g>
</g>
</g>
</g>
<path d="M660.445 252.681C653.112 252.681 647.149 258.572 647.149 265.812C647.149 273.05 653.112 278.94 660.445 278.94C667.778 278.94 673.741 273.05 673.741 265.812C673.741 258.572 667.778 252.681 660.445 252.681ZM660.445 280.747C652.103 280.747 645.318 274.047 645.318 265.812C645.318 257.575 652.103 250.875 660.445 250.875C668.787 250.875 675.573 257.575 675.573 265.812C675.573 274.047 668.787 280.747 660.445 280.747Z" fill="white"/>
<path d="M693.957 259.392C686.624 259.392 680.661 265.282 680.661 272.52C680.661 279.761 686.624 285.651 693.957 285.651C701.29 285.651 707.253 279.761 707.253 272.52C707.253 265.282 701.29 259.392 693.957 259.392ZM693.957 287.458C685.615 287.458 678.829 280.757 678.829 272.52C678.829 264.285 685.615 257.585 693.957 257.585C702.299 257.585 709.084 264.285 709.084 272.52C709.084 280.757 702.299 287.458 693.957 287.458Z" fill="white"/>
<path d="M679.692 268.642C678.08 266.189 675.11 267.227 674.983 267.273L674.355 265.576C675.894 265.021 679.309 264.741 681.227 267.657L679.692 268.642Z" fill="white"/>
<path d="M703.747 611.712C699.516 614.711 693.749 623.673 683.733 626.818C626.839 644.694 573.744 610 573.744 610C570.591 594.614 572.542 577.133 577.791 570.733C576.14 568.46 577.232 565.742 577.232 565.742L552.178 519.879C552.784 520.256 591.479 544.409 620.153 561.52H620.165C628.428 566.448 635.856 570.792 641.3 573.81C649.607 578.415 660.21 578.865 670.599 577.452C690.848 574.689 710.275 564.837 710.275 564.837C710.275 564.837 758.725 536.627 770.954 537.601C780.461 538.354 746.059 590.118 703.747 611.712Z" fill="#108E59"/>
<path d="M596.588 658.116C596.588 658.116 593.525 658.683 588.548 659.691C587.131 659.978 585.559 660.296 583.862 660.651C581.609 661.121 579.132 661.646 576.489 662.226C574.983 662.555 573.423 662.901 571.818 663.261C551.872 667.747 525.459 674.571 514.823 681.243C514.078 681.71 513.354 682.174 512.659 682.64C496.452 693.399 493.138 702.69 490.131 700.805C486.993 698.842 486.29 690.786 491.41 685.489C494.954 681.819 497.435 676.465 502.194 670.678C503.481 669.113 504.933 667.515 506.618 665.91C514.063 658.827 525.975 651.507 532.628 645.88C533.058 645.518 533.464 645.161 533.847 644.813C539.323 639.826 541.459 629.564 551.452 626.445C556.334 624.923 562.186 625.517 567.831 626.987C568.835 627.247 569.832 627.538 570.813 627.846C572.282 628.31 573.719 628.82 575.104 629.347C577.017 630.087 578.831 630.864 580.486 631.627C582.071 632.357 583.515 633.073 584.76 633.715C587.762 635.269 589.619 636.424 589.619 636.424L596.588 658.116Z" fill="white"/>
<path d="M567.826 626.987C561.92 634.619 548.32 649.208 532.623 645.881C533.052 645.518 533.458 645.162 533.842 644.813C539.318 639.826 541.456 629.564 551.446 626.444C556.329 624.923 562.18 625.518 567.826 626.987Z" fill="#80D7B2"/>
<path d="M512.658 682.639C496.451 693.398 493.137 702.689 490.132 700.806C486.992 698.843 486.291 690.785 491.409 685.488C494.955 681.818 497.436 676.466 502.193 670.679C506.203 673.488 510.468 677.47 512.658 682.639Z" fill="#80D7B2"/>
<path d="M588.543 659.691C587.126 659.976 585.556 660.296 583.857 660.651C580.906 655.33 579.425 648.841 579.516 641.439C579.562 637.698 579.997 634.299 580.481 631.627C582.068 632.358 583.51 633.073 584.755 633.715C584.402 635.965 584.119 638.643 584.086 641.528C584.019 647.361 584.992 654.041 588.543 659.691Z" fill="#80D7B2"/>
<path d="M575.1 629.347C573.716 628.82 572.279 628.31 570.809 627.846C569.856 630.579 568.49 635.184 567.874 640.598C566.874 649.373 568.23 657.079 571.814 663.26C573.419 662.901 574.979 662.555 576.485 662.226C568.904 650.76 573.074 635.222 575.1 629.347Z" fill="#80D7B2"/>
<path d="M835.751 574.855C814.392 600.611 766.369 626.958 715.008 642.245C697.174 647.553 681.864 651.537 668.797 654.523C658.508 656.879 649.606 658.61 641.965 659.875C612.465 664.761 601.623 662.726 601.623 662.726C601.623 662.726 583.42 656.946 591.224 627.749C591.224 627.749 625.732 619.917 652.47 606.867C657.921 604.208 663.052 601.328 667.499 598.253C668.541 597.532 669.577 596.8 670.602 596.056C695.452 578.082 716.701 553.668 772.702 531.599C772.702 531.599 801.992 514.035 825.536 521.911C829.048 523.082 832.372 524.775 835.377 527.111C852.438 540.366 850.171 557.477 835.751 574.855Z" fill="#0CAD69"/>
<path d="M731.146 634.354L720.013 635.864L652.479 606.867C657.929 604.206 663.059 601.329 667.508 598.253C668.548 597.532 669.586 596.8 670.611 596.057L731.146 634.354Z" fill="#108E59"/>
<path d="M668.804 654.522C658.515 656.879 649.612 658.609 641.971 659.874C620.48 654.111 594.748 643.358 594.748 643.358L596.423 630.179L668.804 654.522Z" fill="#108E59"/>
<path d="M835.749 574.856C818.122 551.462 821.623 531.873 825.535 521.911C829.048 523.084 832.371 524.775 835.377 527.111C852.437 540.366 850.17 557.477 835.749 574.856Z" fill="#108E59"/>
<path d="M594.159 636.457C612.12 632.984 649.057 618.098 692.966 596.636C725.805 580.584 763.774 559.9 769.537 552.416C772.65 548.374 773.536 544.997 772.17 542.38C770.127 538.464 763.786 537.802 760.887 537.709C760.14 537.684 759.527 538.283 759.55 539.023C759.572 539.692 760.109 540.233 760.789 540.255C763.638 540.356 768.576 541.046 769.878 543.547C770.961 545.626 769.173 548.679 767.482 550.873C762.834 556.91 731.015 575.194 691.822 594.352C658.073 610.848 614.562 629.916 593.664 633.958L594.159 636.457Z" fill="#108E59"/>
<path d="M598.04 624.111C599.375 639.687 602.834 653.942 611.232 665.113C611.232 665.113 603.412 670.191 596.645 666.028C591.478 662.848 582.312 638.221 586.761 625.467C591.293 623.265 595.149 622.592 598.04 624.111Z" fill="#108E59"/>
<path d="M721.717 664.405C721.717 664.405 724.735 665.166 729.635 666.495C731.029 666.871 732.578 667.294 734.248 667.756C736.465 668.37 738.901 669.055 741.499 669.804C742.981 670.23 744.516 670.675 746.091 671.137C765.699 676.904 791.603 685.42 801.772 692.761C802.487 693.279 803.178 693.788 803.843 694.298C819.3 706.08 821.994 715.563 825.117 713.879C828.379 712.124 829.612 704.129 824.857 698.513C821.561 694.621 819.44 689.119 815.076 683.035C813.895 681.392 812.553 679.703 810.977 677.993C804.018 670.443 792.616 662.372 786.35 656.326C785.946 655.938 785.562 655.555 785.204 655.181C780.071 649.852 778.617 639.475 768.854 635.715C764.083 633.882 758.204 634.095 752.474 635.198C751.453 635.394 750.438 635.618 749.441 635.864C747.942 636.233 746.476 636.647 745.059 637.085C743.102 637.699 741.241 638.359 739.539 639.011C737.907 639.639 736.42 640.259 735.136 640.822C732.037 642.176 730.107 643.207 730.107 643.207L721.717 664.405Z" fill="white"/>
<path d="M752.475 635.197C757.862 643.197 770.468 658.63 786.351 656.325C785.946 655.937 785.565 655.555 785.205 655.182C780.072 649.851 778.617 639.475 768.854 635.715C764.083 633.883 758.207 634.096 752.475 635.197Z" fill="#80D7B2"/>
<path d="M803.84 694.298C819.297 706.08 821.992 715.564 825.114 713.879C828.377 712.124 829.61 704.128 824.854 698.512C821.559 694.621 819.44 689.119 815.073 683.035C810.886 685.58 806.367 689.281 803.84 694.298Z" fill="#80D7B2"/>
<path d="M729.636 666.494C731.03 666.871 732.577 667.293 734.249 667.755C737.544 662.637 739.453 656.257 739.854 648.864C740.054 645.129 739.846 641.709 739.54 639.012C737.908 639.638 736.42 640.258 735.135 640.821C735.341 643.088 735.445 645.777 735.287 648.661C734.967 654.484 733.554 661.085 729.636 666.494Z" fill="#80D7B2"/>
<path d="M741.501 669.804C742.982 670.23 744.515 670.675 746.092 671.137C750.077 665.201 751.942 657.6 751.526 648.777C751.268 643.336 750.21 638.653 749.44 635.863C747.943 636.232 746.478 636.647 745.06 637.084C746.693 643.075 749.823 658.849 741.501 669.804Z" fill="#80D7B2"/>
<path d="M727.43 634.856C733.281 664.498 714.737 669.087 714.737 669.087C714.737 669.087 687.103 672.444 602.953 641.328C554.435 623.389 509.699 595.354 489.032 569.067C473.857 549.767 471.659 531.401 490.467 518.664C494.801 515.729 499.659 514.048 504.715 513.265C527.999 509.657 555.505 525.13 555.505 525.13C612.173 551.828 597.989 561.003 645.246 590.727C672.272 607.726 727.43 634.856 727.43 634.856Z" fill="#0CAD69"/>
<path d="M504.714 513.265C505.616 523.287 507.16 556.8 489.032 569.067C473.856 549.767 471.659 531.401 490.469 518.664C494.803 515.729 499.658 514.048 504.714 513.265Z" fill="#108E59"/>
<path d="M723.93 643.356C706.237 638.731 670.366 621.491 627.973 597.239C596.267 579.101 559.751 556.008 554.496 548.169C551.657 543.933 550.997 540.506 552.532 537.985C554.831 534.207 561.203 533.958 564.102 534.051C564.849 534.076 565.419 534.713 565.348 535.447C565.282 536.115 564.708 536.619 564.03 536.6C561.18 536.516 556.209 536.885 554.743 539.299C553.524 541.301 555.107 544.462 556.648 546.763C560.885 553.085 591.427 573.387 629.267 595.036C661.85 613.676 704.005 635.513 724.591 640.894L723.93 643.356Z" fill="#108E59"/>
<path d="M720.871 630.786C718.506 646.245 714.11 660.242 704.99 670.847C704.99 670.847 712.458 676.419 719.484 672.703C724.85 669.866 735.629 645.883 732.037 632.869C727.659 630.378 723.856 629.459 720.871 630.786Z" fill="#108E59"/>
<path d="M805.717 512.719C799.434 520.657 790.766 525.098 783.886 529.639C767.339 540.565 733.766 547.473 736.289 509.835C738.816 472.202 767.649 487.452 746.435 421.352C737.381 393.149 731.144 335.014 731.144 335.014C731.144 335.014 778.538 367.798 806.579 448.653C808.766 454.952 810.418 460.701 811.612 465.956C817.036 489.828 812.955 503.586 805.717 512.719Z" fill="#FB4C47"/>
<path d="M805.713 512.719C795.432 494.592 803.959 476.673 811.609 465.956C817.033 489.828 812.952 503.586 805.713 512.719Z" fill="#B63A37"/>
<path d="M736.179 516.572C735.655 516.572 735.183 516.212 735.071 515.685C735.002 515.364 733.409 507.705 736.572 497.523C739.478 488.175 747.136 474.875 767.119 464.604C767.678 464.316 768.362 464.531 768.651 465.079C768.941 465.629 768.724 466.306 768.169 466.591C748.943 476.475 741.576 489.16 738.781 498.063C735.747 507.715 737.275 515.145 737.29 515.219C737.421 515.824 737.028 516.419 736.416 516.547C736.335 516.564 736.256 516.572 736.179 516.572Z" fill="#B63A37"/>
<path d="M753.398 475.561C753.244 475.576 753.082 475.559 752.926 475.508C752.329 475.31 752.009 474.675 752.211 474.089C755.89 463.275 758.248 458.646 758.346 458.454C758.629 457.902 759.311 457.682 759.871 457.963C760.43 458.243 760.653 458.916 760.37 459.468C760.345 459.513 757.978 464.173 754.363 474.802C754.215 475.234 753.829 475.519 753.398 475.561Z" fill="#B63A37"/>
<path d="M754.68 470.636C754.054 470.636 753.546 470.134 753.546 469.516C753.546 447.486 723.734 397.609 723.431 397.106C723.111 396.574 723.289 395.885 723.828 395.57C724.367 395.254 725.063 395.431 725.384 395.962C726.627 398.031 755.814 446.876 755.814 469.516C755.814 470.134 755.308 470.636 754.68 470.636Z" fill="#B63A37"/>
<path d="M733.578 414.025C733.341 414.025 733.102 413.953 732.898 413.802C729.04 410.955 719.278 408.437 719.18 408.413C718.574 408.258 718.21 407.646 718.367 407.049C718.523 406.448 719.144 406.088 719.748 406.244C720.166 406.351 730.041 408.896 734.258 412.007C734.758 412.378 734.862 413.08 734.487 413.576C734.263 413.869 733.923 414.025 733.578 414.025Z" fill="#B63A37"/>
<path d="M719.683 571.348C719.868 573.338 720.041 575.416 720.288 577.094C720.752 580.264 721.484 581.999 723.08 578.984C723.435 578.305 723.722 577.438 723.957 576.441C725.332 570.626 724.879 560.39 725.515 558.159C726.233 555.624 729.229 548.414 729.49 548.007C729.356 548.307 728.005 552.716 727.849 555.436C727.701 557.986 727.849 561.086 727.849 567.366C727.849 570.104 727.952 572.936 728.302 574.996V575.002C728.753 577.664 729.623 579.02 731.239 577.174C732.035 576.265 732.543 574.669 732.875 572.78C733.745 567.875 733.433 560.949 733.892 558.682C734.508 555.643 737.006 550.732 737.166 550.424C736.218 553.551 736.218 553.243 735.692 557.351C735.321 560.221 734.643 567.856 735.361 571.278C735.665 572.754 736.238 573.45 737.204 572.642C738.713 571.381 739.76 569.532 740.5 567.417C741.332 565.044 741.771 562.33 742.05 559.73C742.578 554.808 744.595 551.774 744.595 551.774C743.476 557.105 742.863 562.261 743.195 564.924C743.424 566.807 744.123 567.442 745.44 566.01C748.01 563.222 750.604 554.003 751.502 550.536C751.533 550.43 751.558 550.323 751.583 550.223C751.615 550.116 751.635 550.023 751.662 549.933C751.781 549.469 751.845 549.205 751.845 549.205L751.85 549.199C752.596 546.31 753.268 543.422 754.254 540.835C755.718 536.991 757.893 533.808 762.078 532.277C771.574 528.791 768.657 510.959 755.348 509.888C751.471 509.576 747.632 510.845 744.589 513.237C742.651 514.761 739.918 516.889 737.152 518.975L737.147 518.981C736.881 519.316 728.225 529.901 725.515 536.495C722.763 543.189 720.428 553.764 719.899 556.797C719.365 559.831 719.157 565.589 719.683 571.348Z" fill="#FAB893"/>
<path d="M510.469 521.514C516.79 529.653 525.511 534.208 532.434 538.865C549.083 550.069 582.863 557.15 580.324 518.556C577.782 479.967 548.772 495.606 570.117 427.824C579.225 398.905 580.324 341.272 580.324 341.272C580.324 341.272 537.817 372.908 509.601 455.82C507.401 462.277 505.738 468.172 504.539 473.563C499.081 498.042 503.188 512.149 510.469 521.514Z" fill="#FB4C47"/>
<path d="M510.731 523.099C521.013 504.97 512.486 487.053 504.837 476.336C499.413 500.208 503.495 513.966 510.731 523.099Z" fill="#B63A37"/>
<path d="M580.265 526.952C580.789 526.952 581.261 526.592 581.372 526.065C581.442 525.744 583.035 518.085 579.87 507.903C576.966 498.555 569.307 485.256 549.322 474.982C548.766 474.696 548.082 474.911 547.791 475.459C547.502 476.007 547.718 476.684 548.275 476.971C567.501 486.853 574.868 499.54 577.665 508.443C580.694 518.093 579.169 525.525 579.154 525.599C579.025 526.204 579.416 526.798 580.028 526.927C580.107 526.944 580.186 526.952 580.265 526.952Z" fill="#B63A37"/>
<path d="M563.05 485.94C563.206 485.956 563.366 485.939 563.524 485.887C564.117 485.689 564.437 485.054 564.238 484.468C560.558 473.655 558.2 469.025 558.102 468.833C557.819 468.282 557.137 468.061 556.576 468.343C556.018 468.622 555.794 469.295 556.078 469.849C556.101 469.893 558.47 474.552 562.087 485.182C562.233 485.613 562.619 485.899 563.05 485.94Z" fill="#B63A37"/>
<path d="M561.765 481.015C562.393 481.015 562.9 480.513 562.9 479.895C562.9 457.866 592.714 407.988 593.014 407.486C593.336 406.953 593.157 406.265 592.617 405.949C592.08 405.633 591.383 405.81 591.063 406.343C589.819 408.41 560.631 457.255 560.631 479.895C560.631 480.513 561.139 481.015 561.765 481.015Z" fill="#B63A37"/>
<path d="M582.868 424.405C583.105 424.405 583.342 424.333 583.546 424.181C587.404 421.334 597.166 418.818 597.264 418.793C597.871 418.639 598.237 418.026 598.079 417.427C597.921 416.828 597.301 416.469 596.696 416.623C596.278 416.729 586.403 419.276 582.187 422.387C581.686 422.756 581.584 423.46 581.957 423.956C582.181 424.249 582.522 424.405 582.868 424.405Z" fill="#B63A37"/>
<path d="M596.763 581.727C596.578 583.718 596.407 585.797 596.161 587.472C595.694 590.642 594.962 592.379 593.368 589.364C593.011 588.684 592.724 587.818 592.489 586.82C591.116 581.004 591.567 570.768 590.931 568.539C590.213 566.002 587.218 558.794 586.958 558.387C587.091 558.688 588.441 563.096 588.597 565.816C588.745 568.364 588.597 571.466 588.597 577.746C588.597 580.485 588.497 583.317 588.146 585.376V585.382C587.695 588.045 586.823 589.401 585.207 587.554C584.413 586.645 583.905 585.049 583.574 583.159C582.703 578.254 583.013 571.327 582.557 569.06C581.938 566.021 579.44 561.111 579.28 560.804C580.228 563.931 580.228 563.623 580.756 567.731C581.125 570.599 581.805 578.235 581.087 581.658C580.783 583.134 580.209 583.83 579.242 583.022C577.736 581.759 576.686 579.912 575.948 577.797C575.114 575.424 574.677 572.71 574.396 570.11C573.868 565.186 571.853 562.153 571.853 562.153C572.972 567.486 573.583 572.641 573.252 575.302C573.022 577.187 572.323 577.82 571.006 576.388C568.436 573.602 565.842 564.382 564.946 560.917C564.914 560.81 564.889 560.702 564.864 560.603C564.831 560.494 564.813 560.401 564.786 560.314C564.667 559.85 564.604 559.585 564.604 559.585L564.596 559.578C563.852 556.691 563.178 553.802 562.192 551.215C560.73 547.372 558.556 544.188 554.37 542.655C544.873 539.171 547.789 521.339 561.098 520.266C564.977 519.955 568.816 521.223 571.859 523.616C573.797 525.141 576.528 527.269 579.294 529.355L579.3 529.361C579.567 529.694 588.223 540.281 590.931 546.875C593.685 553.57 596.02 564.144 596.548 567.177C597.081 570.209 597.291 575.97 596.763 581.727Z" fill="#FAB893"/>
</svg>
